<svg width="40px" height="40px" viewBox="-1 -1 42 42" version="1.1" xmlns="http://www.w3.org/2000/svg" xmlns:xlink="http://www.w3.org/1999/xlink">
  <g id="Page-1" stroke="none" stroke-width="1" fill="none" fill-rule="evenodd">
    <g id="A" fill="#000000">
      <path d="M20,0 C8.955,0 0,8.954 0,20 C0,31.045 8.955,40 20,40 C31.045,40 40,31.045 40,20 C40,8.954 31.045,0 20,0 M20,3.333 C29.19,3.333 36.667,10.809 36.667,20 C36.667,29.19 29.19,36.666 20,36.666 C10.811,36.666 3.333,29.19 3.333,20 C3.333,10.809 10.811,3.333 20,3.333" id="Fill-1-Copy"></path>
      <path d="M28.0771484,30 L24.3388672,30 L22.8520508,25.284668 L16.0551758,25.284668 L14.6533203,30 L11,30 L17.6269531,9.24121094 L21.2661133,9.24121094 L28.0771484,30 Z M21.7475586,21.7871094 L19.4111328,14.0839844 L17.1030273,21.7871094 L21.7475586,21.7871094 Z"></path>
    </g>
  </g>
</svg>
