<svg width="14px" height="21px" viewBox="0 0 14 21" version="1.1" xmlns="http://www.w3.org/2000/svg" xmlns:xlink="http://www.w3.org/1999/xlink">
    <g stroke="none" stroke-width="1" fill="none" fill-rule="evenodd">
        <g transform="translate(-755.000000, -224.000000)" fill="#000000" fill-rule="nonzero">
            <path d="M755.121466,224.801153 L761.608166,224.801153 C763.379318,224.801153 764.6245,224.962982 765.34375,225.286644 C766.063,225.610307 766.669857,226.181202 767.164342,226.999349 C767.658826,227.817495 767.906064,228.743515 767.906064,229.777437 C767.906064,230.730442 767.694788,231.591282 767.272228,232.35998 C766.849669,233.128678 766.30125,233.697326 765.626953,234.065941 C766.58895,234.407585 767.341903,234.991966 767.885835,235.819103 C768.429768,236.64624 768.70173,237.653175 768.70173,238.839937 C768.70173,240.278436 768.355596,241.494399 767.663318,242.487863 C766.971041,243.481326 766.152906,244.094927 765.208891,244.328683 C764.552576,244.490514 763.028689,244.571429 760.637184,244.571429 L755.121466,244.571429 L755.121466,224.801153 Z M758.385045,228.091704 L758.385045,232.663411 L760.542783,232.663411 C761.837432,232.663411 762.637585,232.640935 762.943266,232.595982 C763.500685,232.506076 763.936723,232.270076 764.251395,231.887974 C764.566067,231.505873 764.7234,230.986672 764.7234,230.330357 C764.7234,229.745967 764.595286,229.271719 764.339053,228.907599 C764.08282,228.543478 763.772649,228.316469 763.408529,228.226562 C763.044408,228.136656 761.999265,228.091704 760.273066,228.091704 L758.385045,228.091704 Z M758.385045,235.953962 L758.385045,241.24042 L761.419364,241.24042 C762.749976,241.24042 763.604072,241.170744 763.981678,241.03139 C764.359284,240.892035 764.676198,240.617825 764.932431,240.208752 C765.188664,239.799679 765.316778,239.280478 765.316778,238.651135 C765.316778,238.00381 765.179673,237.471124 764.905459,237.05306 C764.631246,236.634996 764.267131,236.3473 763.813105,236.189965 C763.359078,236.032629 762.430811,235.953962 761.028274,235.953962 L758.385045,235.953962 Z"></path>
        </g>
    </g>
</svg>
