<svg width="40px" height="40px" viewBox="-1 -1 42 42" version="1.1" xmlns="http://www.w3.org/2000/svg" xmlns:xlink="http://www.w3.org/1999/xlink">
  <g id="Page-1" stroke="none" stroke-width="1" fill="none" fill-rule="evenodd">
    <g id="B" fill="#000000">
      <path d="M20,0 C8.955,0 0,8.954 0,20 C0,31.045 8.955,40 20,40 C31.045,40 40,31.045 40,20 C40,8.954 31.045,0 20,0 M20,3.333 C29.19,3.333 36.667,10.809 36.667,20 C36.667,29.19 29.19,36.666 20,36.666 C10.811,36.666 3.333,29.19 3.333,20 C3.333,10.809 10.811,3.333 20,3.333" id="Fill-1-Copy"></path>
      <path d="M12.7275391,9.24121094 L19.5385742,9.24121094 C21.398284,9.24121094 22.7057254,9.41113111 23.4609375,9.75097656 C24.2161496,10.090822 24.8533503,10.6902626 25.3725586,11.5493164 C25.8917669,12.4083702 26.1513672,13.3806912 26.1513672,14.4663086 C26.1513672,15.4669646 25.929527,16.3708456 25.4858398,17.1779785 C25.0421527,17.9851115 24.4663121,18.5821921 23.7583008,18.9692383 C24.768397,19.327964 25.5589978,19.9415647 26.130127,20.8100586 C26.7012561,21.6785525 26.9868164,22.7358336 26.9868164,23.9819336 C26.9868164,25.4923578 26.623376,26.7691191 25.8964844,27.8122559 C25.1695927,28.8553926 24.3105518,29.4996733 23.3193359,29.7451172 C22.6302049,29.9150399 21.0301232,30 18.519043,30 L12.7275391,30 L12.7275391,9.24121094 Z M16.1542969,12.6962891 L16.1542969,17.496582 L18.4199219,17.496582 C19.7793037,17.496582 20.6194645,17.472982 20.9404297,17.4257812 C21.5257191,17.3313797 21.9835595,17.0835795 22.3139648,16.682373 C22.6443701,16.2811666 22.8095703,15.736006 22.8095703,15.046875 C22.8095703,14.4332652 22.6750502,13.9353046 22.4060059,13.5529785 C22.1369615,13.1706524 21.8112812,12.9322921 21.4289551,12.8378906 C21.0466289,12.7434891 19.9492278,12.6962891 18.1367188,12.6962891 L16.1542969,12.6962891 Z M16.1542969,20.9516602 L16.1542969,26.5024414 L19.340332,26.5024414 C20.7374744,26.5024414 21.6342754,26.4292813 22.0307617,26.282959 C22.4272481,26.1366366 22.7600084,25.8487163 23.0290527,25.4191895 C23.298097,24.9896626 23.4326172,24.444502 23.4326172,23.7836914 C23.4326172,23.1040005 23.288657,22.5446799 23.0007324,22.1057129 C22.7128078,21.6667459 22.3304874,21.3646655 21.8537598,21.1994629 C21.3770321,21.0342602 20.4023511,20.9516602 18.9296875,20.9516602 L16.1542969,20.9516602 Z"></path>
    </g>
  </g>
</svg>
