<svg xmlns="http://www.w3.org/2000/svg" viewBox="0 0 1614.729 586"><defs><clipPath id="a"><path data-name="Path 255" d="M0 0h585.672v800.328H0z"/></clipPath><clipPath id="b"><path data-name="Path 256" d="M0 814.9h585.672V0H0z"/></clipPath></defs><g data-name="Banner background"><g transform="rotate(-90 293 293)" clip-path="url(#a)" style="isolation:isolate"><path d="M601.197 433.593l.806.93v420.676h-.806V433.593zM163.706-58.797l176.609 198.713-52.62 105.091L142.235-50.53l21.471-8.267zm0 0" fill="#306991"/><path d="M403.822-151.385l67.337 29.868-130.844 261.433L163.706-58.797zm198.181-141.362v727.27l-.806-.93v-726.34h.806zm0 0" fill="#164872"/><path d="M106.247-123.589l57.458 64.791-21.471 8.267zM-13.105-257.924zm0 0" fill="#10406b"/><path d="M142.235-50.531L-4.435 5.993l163.1 496.73 129.031-257.717L142.235-50.531zm0 0" fill="#164872"/><path d="M-13.105-257.924v237.46L-4.436 5.99l146.67-56.524-35.987-73.058-119.352-134.332zm0 0M-4.436 5.993l-8.669 3.41v836.392l171.77-343.072zm0 0" fill="#0c2f59"/><path d="M-13.105 845.795zm613.494-413.133l.806.93v421.606h-.806zM340.315 139.915l165.016 185.8-77.518 203.979-140.118-284.688 52.62-105.091zm0 0" fill="#1b4e79"/><path d="M601.196-292.747h-4.641l-.8 226.613-124.6-55.383-130.84 261.433 165.016 185.8 95.058-249.864v356.811l.806.93v-726.34zm0 0M287.695 245.007l-129.03 257.717 114.312 348.031-286.082 2.067v2.375h317.13l123.788-325.5-140.118-284.69zm0 0" fill="#113964"/><path d="M158.665 502.724l-171.77 343.071v7.027l286.082-2.067zm0 0" fill="#0b264f"/><path d="M505.331 325.711l-77.518 203.98 160.178 325.5h12.4V432.662l-95.06-106.951zm0 0" fill="#0f3660"/><path d="M600.39 75.848l-95.058 249.86L600.39 432.66zm0 0M427.813 529.694L304.025 855.198H587.99L427.813 529.694zm0 0" fill="#0c2951"/></g><g data-name="sideMenuBackground-group3" transform="rotate(-90 692.75 -107.078)" clip-path="url(#b)" style="isolation:isolate"><path data-name="sideMenuBackground-bezier14" d="M601.197 373.413l.806-.947V-55.87h-.806v429.283zM163.706 874.769l176.609-202.331-52.62-107.008-145.46 300.922 21.471 8.417zm0 0" fill="#306991"/><path data-name="sideMenuBackground-bezier15" d="M403.822 969.043l67.337-30.408-130.844-266.2-176.609 202.331zm198.184 143.936V372.466l-.806.947v739.566h.806zm0 0" fill="#164872"/><path data-name="sideMenuBackground-bezier16" d="M106.247 940.739l57.458-65.971-21.471-8.417zm-119.352 136.782zm0 0" fill="#10406b"/><path data-name="sideMenuBackground-bezier17" d="M142.235 866.351l-146.67-57.553 163.1-505.775 129.031 262.41zm0 0" fill="#164872"/><path data-name="sideMenuBackground-bezier18" d="M-13.105 1077.521V835.733l8.669-26.935 146.67 57.553-35.987 74.388-119.352 136.782zm0 0" fill="#0c2f59"/><path data-name="sideMenuBackground-bezier19" d="M-4.436 808.799l-8.669-3.472V-46.295l171.77 349.318zm0 0" fill="#0c2f59"/><path data-name="sideMenuBackground-bezier20" d="M-13.105-46.295zM600.389 374.36l.806-.947V-55.87h-.806zM340.315 672.438l165.016-189.179-77.518-207.7L287.695 565.43l52.62 107.005zm0 0" fill="#1b4e79"/><path data-name="sideMenuBackground-bezier21" d="M601.196 1112.979h-4.637l-.806-230.74-124.594 56.4-130.844-266.201 165.016-189.179 95.058 254.413V374.36l.807-.947v739.566zm0 0" fill="#113964"/><path data-name="sideMenuBackground-bezier22" d="M287.695 565.43l-129.03-262.407L272.977-51.346-13.105-53.45v-2.42h317.13l123.788 331.432zm0 0" fill="#113964"/><path data-name="sideMenuBackground-bezier23" d="M158.665 303.023L-13.105-46.295v-7.155l286.082 2.1zm0 0" fill="#0b264f"/><path data-name="sideMenuBackground-bezier24" d="M505.331 483.259l-77.518-207.697L587.991-55.87h12.4v430.23zm0 0" fill="#0f3660"/><path data-name="sideMenuBackground-bezier25" d="M600.389 737.672L505.331 483.26l95.058-108.9zm0 0" fill="#0c2951"/><path data-name="sideMenuBackground-bezier26" d="M427.813 275.562L304.025-55.87H587.99L427.813 275.562zm0 0" fill="#0c2951"/></g></g></svg>