<svg width="72" height="28" id="Layer_1" xmlns="http://www.w3.org/2000/svg" viewBox="0 0 1000 390"><defs><style>.cls-1{fill:#fefefe;}</style></defs><path class="cls-1" d="M972.99,166l-475.5-88.08L39.51,166.01l-.08-5.08,458.07-88.03,473.83,87.26c2.4.8,1.62,3.86,1.66,5.83Z"/><path class="cls-1" d="M94.5,186c12.55,1.27,27.21,8.49,30.24,21.75,2.74,11.94-.9,21.67-10.23,29.26-1.59,1.29-4.09,1.35-4.5,2.98,26.06,5.22,29.13,41.72,4.98,52.5-3.45,1.54-14.07,4.52-17.48,4.52h-58c-.11,0-1.5-1.39-1.5-1.5v-108c0-.27,1.17-.99,1.5-1.5,17.63,1.31,37.68-1.75,55,0ZM51,235h44.5c.52,0,6.43-2.1,7.4-2.6,12.45-6.24,14.17-23.51,2.43-31.24-1.54-1.02-8.46-4.17-9.83-4.17h-44.5v38ZM51,286h49.5c.59,0,7.09-2.3,8.18-2.82,14.64-7.06,13.31-28.96-1.7-34.65-1.23-.47-8.76-2.52-9.48-2.52h-46.5v40Z"/><path class="cls-1" d="M632.5,186c24.52,2.48,39.72,18.52,37.54,43.54-1.34,15.39-11.06,23.54-24,29.95l25.96,37.02c-3.5.52-10.72,1.44-13.56-.43l-24.93-34.07h-37.5v35c-2.25-.25-13,.95-13-1.5v-108c0-.11,1.39-1.5,1.5-1.5,14.82,0,33.76-1.44,48,0ZM596,251h37.5c19.09,0,29.3-22.39,22-39-3.61-8.23-15.23-15-24-15h-35.5v54Z"/><path class="cls-1" d="M773,186v11h-63v38h56v11h-56v40h64.5c2.2,0,2.2,11,0,11h-77.5v-111h76Z"/><polygon class="cls-1" points="439 186 439 197 375 197 375 235 432 235 432 246 375 246 375 286 441 286 441 297 363 297 363 186 439 186"/><path class="cls-1" d="M256,186v70.5c0,1.33,1.92,8.69,2.53,10.47,10.16,29.66,61.06,25.22,63.36-7.58l.25-71.75c1.01-3.1,10.03-1.1,12.86-1.64v69.5c0,45.62-65.22,57.6-85.17,22.17-1.58-2.8-5.83-13.59-5.83-16.17v-75.5h12Z"/><path class="cls-1" d="M865.98,205c-12.84-7.65-28.37-11.51-43.19-7.71-16.18,4.16-23.21,22.54-7.46,31.87,16.05,9.51,54.57,8.54,58.43,31.57,6.24,37.27-39.12,42.47-65.04,33.04-3.39-1.23-17.63-7.81-16.58-12.03.43-1.74,3.85-5.3,4.37-7.76,13.63,11.96,38.99,17.51,55.54,9.57,11.31-5.43,14.24-20.75,3.28-28.39-17.75-12.37-61.92-6.87-61.36-39.62.56-32.87,45.94-35.26,68.72-24.74,10.2,4.71,6.5,5.06,3.29,14.19Z"/><path class="cls-1" d="M512.8,185.3c13.38-1.16,37.12,3.34,45.26,15.17,1.93,2.8-4.95,8.51-6.38,8.39-1.32-.11-8.51-6.29-11.32-7.71-37.93-19.27-80.98,18.16-63.84,58.84,10.14,24.08,41.92,33.44,64.53,21.56,7.64-4.02,9.74-12.63,17.02-2.07,2.23,3.24-6.64,9.1-9.37,10.72-29.7,17.74-73.01,4.57-84.73-28.65-12.79-36.23,10.65-72.93,48.84-76.24Z"/><polygon class="cls-1" points="973 186 973 197 934 197 934 297 922 297 922 197 883 197 883 186 973 186"/><path class="cls-1" d="M170,286h61v11h-74v-111c2.25.25,13-.95,13,1.5v98.5Z"/><path class="cls-1" d="M565.99,71c-.33.34-4.5-.59-4.84-1.16-.42-.69-1.79-12.74-2.66-15.83-16.77-59.67-104.72-58.04-119,3.98-.63,2.73-1.3,12.31-1.63,12.86s-4.52,1.48-4.85,1.14c-1.34-27.82,17.74-53.67,43.47-63.02,43.48-15.8,89.51,16.19,89.52,62.02Z"/><path class="cls-1" d="M617,374v-31.5c0-1.98,6-1.99,6,0v42.5l-5.57-.93-25.43-32.07v31.5c0,1.53-4.57,1.76-6,1.5v-42.5c0-.62,1.67-1.55,2.5-1.54,3.98.03,23.16,29.42,28.5,33.04Z"/><path class="cls-1" d="M57.5,341c11.19,1.38,18.96,10.94,14.01,22.01-1.56,3.48-7.36,7.03-7.49,7.57-.39,1.66,10.37,13.22,8.98,14.42-7.8,2.39-10.42-11.4-15.01-13.48-3.46-1.57-10.06.07-13.99-.51v14c-1.43.26-6,.03-6-1.5v-41c0-.11,1.39-1.5,1.5-1.5,5.5,0,12.82-.64,18,0ZM44,367c10.9.65,27.48.81,22.55-15.05-.77-2.49-5.88-5.95-8.05-5.95h-14.5v21Z"/><path class="cls-1" d="M390,385v-44h20.5c16.66,0,27.09,23.23,15.49,36.49-2.2,2.51-10.43,7.51-13.49,7.51h-22.5ZM395,380h17.5c1.41,0,7.63-3.77,8.9-5.1,6.78-7.07,5.14-20.36-3.06-25.74-.87-.57-6.4-3.16-6.84-3.16h-16.5v34Z"/><path class="cls-1" d="M141,346v14h20.5c1.31,0,1.83,3.69,1.5,5h-22v15h25v5h-31v-42.5c0-.11,1.39-1.5,1.5-1.5h28c1.88,0,1.88,5,0,5h-23.5Z"/><path class="cls-1" d="M523,346h-25v14h22v5h-22v15h26v5h-31v-44h28.5c1.31,0,1.83,3.69,1.5,5Z"/><path class="cls-1" d="M883.99,384.99c-8.09,2.71-6.58-9.44-10.66-10.83-2.04-.7-22.73-.48-23.44.46-3.57,4.73-1.23,12.69-9.89,10.37l19.97-43.53c3.34-1.56,4.61.3,6.23,2.83,4.39,6.87,14.06,28.87,17.01,36.99.45,1.25,1.08,2.29.78,3.71ZM872,369l-9.01-21c-1.27-.98-9.44,19.02-9.99,21h19Z"/><path class="cls-1" d="M254.86,344.12c.73,1.2,0,4.61-1.38,4.88-.77.15-5.75-2.59-8.06-2.91-5.73-.8-14.91-.17-14.52,7.4.52,9.91,25.75,4.54,26.19,19,.56,18.51-32.14,13.3-32.12,6.02,0-5.21,5.88.04,8.22.8,5.54,1.81,19.29,2.71,18.88-5.84-.54-11.1-28.12-4.13-26.09-21.99,1.1-9.66,12.33-11.36,20.26-10.22,1.35.19,8.28,2.3,8.62,2.86Z"/><path class="cls-1" d="M949,380h22.5c1.88,0,1.88,5,0,5h-28.5v-42.5c0-1.98,6-1.99,6,0v37.5Z"/><path class="cls-1" d="M717,346h-15v39h-5v-39h-15v-5h33.5c1.31,0,1.83,3.69,1.5,5Z"/><path class="cls-1" d="M324,385h-5v-44c1.31-.33,5,.19,5,1.5v42.5Z"/><path class="cls-1" d="M781,341v44h-5v-42.5c0-1.31,3.69-1.83,5-1.5Z"/></svg>