<svg xmlns="http://www.w3.org/2000/svg" width="1120.72" height="252.73" viewBox="0 0 1120.72 252.73">
  <g>
    <g>
      <path d="M91.51,81.16c3.25-1.87,5.99-4.15,8.19-6.82,4.29-5.2,6.47-11.78,6.47-19.55,0-11.23-4.35-19.9-12.94-25.78-8.11-5.55-20.06-8.36-35.52-8.36H0v128.23h59.23c16.49,0,29.28-3.14,38.01-9.32,9.17-6.49,13.81-16.03,13.81-28.35,0-8.5-2.64-15.75-7.85-21.54-3.06-3.41-6.98-6.25-11.7-8.5ZM18.95,38.07h37.93c10.97,0,18.99,1.52,23.82,4.53,4.34,2.71,6.37,6.74,6.37,12.69s-2.04,10.36-6.23,13.19c-4.63,3.12-12.07,4.71-22.1,4.71H18.95v-35.11ZM91.77,111.2c0,6.92-2.38,11.83-7.27,15-5.37,3.48-14.16,5.25-26.11,5.25H18.95v-40.83h41.13c10.8,0,18.99,1.86,24.34,5.53,4.95,3.39,7.35,8.32,7.35,15.06Z" fill="#fff"/>
      <polygon points="160.06 20.64 140.94 20.64 140.94 148.88 238.9 148.88 242.91 131.28 160.06 131.28 160.06 20.64" fill="#fff"/>
      <path d="M356.15,97.73c0,24.84-12.32,36.41-38.77,36.41s-38.77-11.57-38.77-36.41V20.64h-19.11v76.58c0,17.96,4.96,31.73,14.73,40.93,9.71,9.13,24.22,13.76,43.15,13.76s33.45-4.63,43.15-13.76c9.77-9.19,14.73-22.96,14.73-40.93V20.64h-19.11v77.08Z" fill="#fff"/>
      <polygon points="430.49 91.62 508.29 91.62 508.29 74.02 430.49 74.02 430.49 38.24 512.5 38.24 512.5 20.64 411.38 20.64 411.38 148.88 512.19 148.88 516.21 131.28 430.49 131.28 430.49 91.62" fill="#fff"/>
      <path d="M648.22,104.98c-2.05,9.72-6.47,16.82-13.52,21.7-7.14,4.95-16.97,7.45-29.21,7.45-15.3,0-26.93-4.26-35.54-13.03-8.51-8.67-12.83-20.84-12.83-36.18,0-10.4,2.02-19.45,6.01-26.91,3.92-7.34,9.5-12.99,16.56-16.8,7.17-3.87,15.69-5.83,25.3-5.83,11.36,0,20.49,2.29,27.14,6.8,6.57,4.46,11.51,11.67,14.7,21.42l1.06,3.24,18.54-2.9-1.16-4.31c-3.72-13.79-10.83-24.38-21.13-31.47-10.18-7-23.35-10.56-39.14-10.56-13.54,0-25.58,2.89-35.8,8.59-10.29,5.74-18.25,13.82-23.64,24.02-5.34,10.08-8.04,21.76-8.04,34.71,0,13.66,2.86,25.68,8.51,35.72,5.69,10.13,13.78,17.97,24.04,23.31,10.13,5.27,22.06,7.94,35.44,7.94,16.95,0,31.02-3.97,41.83-11.79,10.99-7.95,17.79-19.27,20.21-33.65l.78-4.66h-19.42l-.67,3.18Z" fill="#fff"/>
      <polygon points="1035.01 131.28 1035.01 91.62 1112.81 91.62 1112.81 74.02 1035.01 74.02 1035.01 38.24 1117.02 38.24 1117.02 20.64 1015.9 20.64 1015.9 148.88 1116.71 148.88 1120.72 131.28 1035.01 131.28" fill="#fff"/>
      <g>
        <path d="M221.74,233.84c1.48-1.78,2.23-4.06,2.23-6.77,0-3.66-1.27-6.49-3.78-8.42-2.35-1.81-5.73-2.72-10.04-2.72h-16.69v35.98h6.91v-13.8h9.29c.47,0,.89,0,1.26-.02l7.93,13.81h8.04l-8.89-15.31c1.52-.68,2.78-1.6,3.75-2.77ZM200.36,222.49h9.56c2.59,0,4.53.42,5.62,1.22.59.44,1.38,1.25,1.38,3.32,0,1.36,0,4.54-7.14,4.54h-9.42v-9.08Z" fill="#fff"/>
        <polygon points="275 236.69 295.69 236.69 295.69 230.14 275 230.14 275 222.49 296.81 222.49 296.81 215.94 268.04 215.94 268.04 251.92 296.54 251.92 298.04 245.37 275 245.37 275 236.69" fill="#fff"/>
        <path d="M367.52,234.05c-2.03-1.69-5.04-2.8-9.22-3.4l-5.73-.8c-3.46-.5-5.03-1.2-5.74-1.7-.51-.36-1.1-.95-1.1-2.37,0-1.24.54-2.1,1.74-2.79,1.52-.87,3.86-1.31,6.96-1.31,2.72,0,4.79.38,6.15,1.14,1.25.7,2.18,1.86,2.81,3.57l.59,1.58,6.72-1.28-.72-2.17c-1.11-3.33-2.97-5.77-5.53-7.26-2.47-1.43-5.75-2.13-10.03-2.13-4.67,0-8.42.88-11.15,2.62-2.98,1.9-4.55,4.7-4.55,8.12,0,3.18,1.16,5.68,3.45,7.43,2.07,1.59,5.21,2.66,9.6,3.28l5.1.72c3.44.5,5.01,1.23,5.73,1.76.8.59,1.16,1.37,1.16,2.54,0,1.49-.54,2.48-1.74,3.22-1.46.9-3.79,1.36-6.92,1.36-3.34,0-5.87-.48-7.52-1.42-1.46-.83-2.34-2.1-2.7-3.88l-.32-1.6h-6.99l.32,2.28c.72,5.1,4.3,11.17,17.21,11.17,4.77,0,8.55-.9,11.25-2.68,2.92-1.93,4.46-4.84,4.46-8.41,0-3.21-1.11-5.76-3.29-7.58Z" fill="#fff"/>
        <rect x="414.64" y="215.94" width="6.96" height="35.98" fill="#fff"/>
        <path d="M482.28,215.94h-15.08v35.98h14.05c6.44,0,11.51-1.55,15.07-4.6,3.66-3.13,5.51-7.64,5.51-13.39s-1.76-10.14-5.22-13.3c-3.41-3.11-8.24-4.69-14.34-4.69ZM491.52,242.44c-2.23,1.95-5.65,2.93-10.17,2.93h-7.18v-22.88h8.12c4.18,0,7.34.97,9.41,2.89,2.06,1.91,3.06,4.7,3.06,8.54s-1.06,6.6-3.23,8.51Z" fill="#fff"/>
        <polygon points="552.64 236.69 573.34 236.69 573.34 230.14 552.64 230.14 552.64 222.49 574.46 222.49 574.46 215.94 545.69 215.94 545.69 251.92 574.19 251.92 575.68 245.37 552.64 245.37 552.64 236.69" fill="#fff"/>
        <polygon points="643.91 240.18 623.73 215.94 617.84 215.94 617.84 251.92 624.79 251.92 624.79 227.68 644.97 251.92 650.86 251.92 650.86 215.94 643.91 215.94 643.91 240.18" fill="#fff"/>
        <polygon points="692.87 222.49 706.54 222.49 706.54 251.92 713.49 251.92 713.49 222.49 727.15 222.49 727.15 215.94 692.87 215.94 692.87 222.49" fill="#fff"/>
        <rect x="769.16" y="215.94" width="6.96" height="35.98" fill="#fff"/>
        <path d="M834.47,215.94l-17.49,35.98h7.63l4.7-9.72h15.81l4.7,9.72h7.72l-17.49-35.98h-5.59ZM832.41,235.65l4.79-9.96,4.79,9.96h-9.58Z" fill="#fff"/>
        <polygon points="905.36 245.37 905.36 215.94 898.41 215.94 898.41 251.92 926.14 251.92 927.64 245.37 905.36 245.37" fill="#fff"/>
      </g>
      <path d="M770.83,103.28l3.35,1.2c.69.25,28.1,10.08,69.95,24.51,8.03-12.93,12.68-28.17,12.68-44.51,0-46.66-37.83-84.49-84.49-84.49s-84.49,37.83-84.49,84.49c0,15.79,4.34,30.56,11.88,43.2,21.86-7.26,43.62-14.71,67.77-23.23l3.36-1.18Z" fill="#fff"/>
      <path d="M896.26,97.01h38.43c2.7,0,4.92-.05,6.72-.15l29.86,52.01h22.06l-32.41-55.8c6.93-2.39,12.46-6.04,16.49-10.89,5.03-6.04,7.58-13.84,7.58-23.19,0-12.59-4.32-22.3-12.84-28.85-8.2-6.3-20.18-9.5-35.61-9.5h-59.23v119.73c6.14,2.09,12.46,4.23,18.95,6.42v-49.78ZM896.26,38.24h39.45c10.64,0,18.45,1.78,23.23,5.29,4.46,3.27,6.62,8.28,6.62,15.3,0,8.84-3.15,20.58-30.35,20.58h-38.94v-41.17Z" fill="#fff"/>
      <path d="M1093.35,220.17c-90.19-26.53-190.77-60.38-255.26-82.66-40.9-14.13-67.29-23.61-67.29-23.61,0,0,0,0,0,0,0,0,0,0,0,0-70.07,24.72-121.82,41.02-199.7,64.98h.06s-.03,0-.04,0l123.92-27.74,20.09-4.5,55.69-12.46,322.54,85.99c-.05-.01-.1-.03-.15-.05l.17.05Z" fill="#fff"/>
    </g>
  </g>
</svg>