<svg width="57" height="11" xmlns="http://www.w3.org/2000/svg"><g clip-path="url(#a)"><clipPath id="a"><path d="M.4.1h56.25v10.6H.4z"/></clipPath><path fill="#FFF" d="M14.46 5.79c-.06 0-.13.01-.2.02-.17.02-.35.04-.53.04h-.69V3.59h.36c.59 0 1.05.04 1.39.22.35.2.57.55.57.94 0 .6-.52 1.01-.9 1.04zm-.02-3.15c-.23.15-.56.22-1.05.22h-.35V1h.75c.67 0 1.06.31 1.06.84 0 .32-.15.63-.41.8zm.48.48c.46-.29.71-.74.71-1.28 0-.99-.74-1.57-1.96-1.57h-1.38v6.31h1.77c.62 0 1.15-.19 1.54-.56.34-.33.53-.79.53-1.28 0-.76-.4-1.3-1.21-1.62zm0 0M17.81.27h-.75v6.31h3.12v-.73h-2.37V.27zm0 0M24.55 4.26c0 .48 0 .89-.32 1.28-.25.31-.59.46-1.05.46-.46 0-.8-.15-1.05-.46-.32-.39-.32-.8-.32-1.28V.27h-.74v4.08c0 1.47.81 2.39 2.11 2.39 1.3 0 2.11-.92 2.11-2.39V.27h-.74v3.99zm0 0M26.69 6.58h3.66v-.73h-2.91V3.54h2.91v-.73h-2.91V1h2.91V.27h-3.66v6.31zm0 0M32.65 2.59l-.12-.09c-.33-.25-.52-.58-.52-.9 0-.36.26-.73.77-.73.49 0 .77.32 1.09.74l.04.05.59-.47-.03-.05C34.07.61 33.6.11 32.8.11c-.89 0-1.57.65-1.57 1.51 0 .47.24.99.55 1.24.21.17.41.32.58.46.99.79 1.44 1.15 1.44 1.7s-.47.98-1.08.98c-.46 0-.88-.34-1.24-.99l-.03-.06-.63.39.03.05c.5.93 1.1 1.35 1.92 1.35 1 0 1.81-.78 1.81-1.73 0-1-.81-1.59-1.93-2.42zm0 0M35.16 1h1.39v5.58h.75V1h1.38V.27h-3.52V1zm0 0M44.88 3.41c0 1.48-1.11 2.59-2.57 2.59a2.52 2.52 0 01-2.54-2.55A2.55 2.55 0 0142.31.84c1.26 0 2.57.96 2.57 2.57zm-2.6-3.3C40.44.11 39 1.58 39 3.45c0 1.84 1.46 3.28 3.33 3.28 1.86 0 3.32-1.45 3.32-3.31 0-1.89-1.45-3.31-3.37-3.31zm0 0M50.83 4.9L46.84.29l-.02-.02h-.22v6.31h.75V2.01l4 4.57h.23V.27h-.75V4.9zm0 0M56.63 1V.27h-3.66v6.31h3.66v-.73h-2.92V3.54h2.92v-.73h-2.92V1h2.92zm0 0M.86 8.87v.67h.33c.17 0 .3-.01.39-.08.07-.06.11-.16.11-.26s-.04-.2-.12-.26c-.09-.06-.21-.07-.36-.07H.86zm-.2-.19h.46c.21 0 .36.01.46.04.2.08.32.26.32.48 0 .19-.09.34-.23.43-.14.09-.34.1-.61.1h-.2v.92h-.2V8.68zm0 0M7.07 8.87v.67h.32c.17 0 .31-.02.39-.08.07-.06.12-.16.12-.26 0-.19-.13-.33-.43-.33h-.4zm-.2-.19h.45c.21 0 .37.01.46.04.2.08.33.26.33.48 0 .1-.02.16-.06.25-.1.2-.3.28-.63.28l.71.92h-.24l-.71-.92h-.11v.92h-.2V8.68zm0 0M13.21 9.67c0 .49.39.84.84.84.46 0 .83-.36.83-.85 0-.5-.4-.84-.83-.84-.44 0-.84.34-.84.85zm1.88-.01c0 .58-.45 1.04-1.04 1.04-.61 0-1.04-.48-1.04-1.03 0-.59.45-1.04 1.02-1.04.6 0 1.06.44 1.06 1.03zm0 0M20.25 8.87v.67h.32c.17 0 .31-.01.39-.08.07-.06.12-.16.12-.26s-.05-.2-.12-.26c-.09-.06-.21-.07-.36-.07h-.35zm-.2-.19h.46c.2 0 .36.01.45.04.2.08.33.26.33.48 0 .19-.09.34-.23.43-.14.09-.35.1-.62.1h-.19v.92h-.2V8.68zm0 0M26.25 8.68h1.12v.19h-.93v.62h.93v.19h-.93v.78h.93v.19h-1.12V8.68zm0 0M32.49 8.87v.67h.33c.17 0 .3-.02.39-.08.07-.06.11-.16.11-.26 0-.19-.13-.33-.42-.33h-.41zm-.2-.19h.46c.2 0 .36.01.46.04.2.08.32.26.32.48 0 .1-.01.16-.06.25-.1.2-.3.28-.62.28l.71.92h-.25l-.71-.92h-.11v.92h-.2V8.68zm0 0M38.34 8.87v-.19h1.08v.19h-.44v1.78h-.2V8.87h-.44zm0 0M44.24 8.68h.2v1.97h-.2V8.68zm0 0M49.46 8.68h1.13v.19h-.93v.62h.93v.19h-.93v.78h.93v.19h-1.13V8.68zm0 0M56.26 9.07c-.11-.14-.2-.24-.37-.24-.17 0-.26.12-.26.25 0 .11.06.22.17.3.38.28.65.47.65.79 0 .28-.24.53-.56.53-.27 0-.45-.15-.59-.42l.16-.1c.12.22.26.33.42.33.2 0 .36-.15.36-.34 0-.22-.2-.34-.65-.7a.541.541 0 01-.17-.38c0-.27.21-.46.48-.46.24 0 .39.14.52.32l-.16.12zm0 0M1 6.17H.38V1.9L1 1.52v4.65zm0 0M4.53 6.53h.62V.41l-.62.4v5.72zm0 0"/><path fill="#FFF" d="M.37 6.52H1v-3.8H.37v3.8zm0 0"/><path fill="#FFF" d="M.4 3.44v.62l4.73-3.01V.42L.4 3.44zm0 0M.4 5.89v.63l4.73.01v-.62L.4 5.89zm0 0M6.51 6.53h-.63V.41l.63.4v5.72zm0 0M10.66 6.52h-.62V3.46h.62v3.06zm0 0"/><path fill="#FFF" d="M10.64 3.44v.62L5.91 1.05V.42l4.73 3.02zm0 0M10.64 5.89l.02.63-4.73.01-.02-.62 4.73-.02zm0 0"/><path fill="#FFF" d="M6.5 7.6h-.63V3.46h.63V7.6zm0 0"/></g></svg>