<svg width="15px" height="21px" viewBox="0 0 15 21" version="1.1" xmlns="http://www.w3.org/2000/svg" xmlns:xlink="http://www.w3.org/1999/xlink">
    <g stroke="none" stroke-width="1" fill="none" fill-rule="evenodd">
        <g transform="translate(-786.000000, -219.000000)" fill="#000000" fill-rule="nonzero">
            <path d="M797.50558,232.302548 L800.674758,233.529762 C800.180274,235.741454 799.357645,237.357494 798.206845,238.37793 C797.056046,239.398365 795.640044,239.908575 793.958798,239.908575 C791.846003,239.908575 790.133315,239.094936 788.820685,237.467634 C787.31026,235.588594 786.55506,233.053277 786.55506,229.861607 C786.55506,226.490124 787.314756,223.851417 788.83417,221.945406 C790.155792,220.291131 791.931412,219.464007 794.161086,219.464007 C795.977192,219.464007 797.496584,220.08435 798.719308,221.325056 C799.591398,222.206137 800.229723,223.514252 800.634301,225.249442 L797.397693,226.193452 C797.190909,225.123569 796.779594,224.303187 796.163737,223.732282 C795.54788,223.161378 794.821898,222.87593 793.98577,222.87593 C792.790018,222.87593 791.81455,223.397378 791.059338,224.44029 C790.304126,225.483202 789.926525,227.20488 789.926525,229.605376 C789.926525,232.095778 790.295135,233.866903 791.032366,234.918806 C791.769597,235.970708 792.727084,236.496652 793.904855,236.496652 C794.767954,236.496652 795.514165,236.161756 796.143508,235.491955 C796.772852,234.822154 797.226871,233.759029 797.50558,232.302548 L797.50558,232.302548 Z"></path>
        </g>
    </g>
</svg>
