<svg width="40px" height="40px" viewBox="-1 -1 42 42" version="1.1" xmlns="http://www.w3.org/2000/svg" xmlns:xlink="http://www.w3.org/1999/xlink">
  <g id="Page-1" stroke="none" stroke-width="1" fill="none" fill-rule="evenodd">
    <g id="C" fill="#000000">
      <path d="M20,0 C8.955,0 0,8.954 0,20 C0,31.045 8.955,40 20,40 C31.045,40 40,31.045 40,20 C40,8.954 31.045,0 20,0 M20,3.333 C29.19,3.333 36.667,10.809 36.667,20 C36.667,29.19 29.19,36.666 20,36.666 C10.811,36.666 3.333,29.19 3.333,20 C3.333,10.809 10.811,3.333 20,3.333" id="Fill-1-Copy"></path>
      <path d="M23.6308594,22.3676758 L26.9584961,23.65625 C26.4392878,25.9785272 25.5755269,27.675369 24.3671875,28.7468262 C23.1588481,29.8182834 21.6720466,30.3540039 19.9067383,30.3540039 C17.6883027,30.3540039 15.8899808,29.499683 14.5117188,27.7910156 C12.9257733,25.818024 12.1328125,23.1559412 12.1328125,19.8046875 C12.1328125,16.2646307 12.9304933,13.4939879 14.5258789,11.4926758 C15.9135812,9.75568793 17.7779831,8.88720703 20.1191406,8.88720703 C22.0260512,8.88720703 23.6214129,9.53856771 24.9052734,10.8413086 C25.8209681,11.7664434 26.4912088,13.1399648 26.9160156,14.9619141 L23.5175781,15.953125 C23.3004546,14.829747 22.8685742,13.9683461 22.2219238,13.3688965 C21.5752735,12.7694469 20.8129927,12.4697266 19.9350586,12.4697266 C18.6795185,12.4697266 17.6552774,13.0172471 16.8623047,14.1123047 C16.069332,15.2073622 15.6728516,17.0151241 15.6728516,19.5356445 C15.6728516,22.1505665 16.059892,24.0102484 16.8339844,25.1147461 C17.6080768,26.2192438 18.6134378,26.7714844 19.8500977,26.7714844 C20.7563522,26.7714844 21.539873,26.419844 22.2006836,25.7165527 C22.8614942,25.0132615 23.3382147,23.8969803 23.6308594,22.3676758 L23.6308594,22.3676758 Z"></path>
    </g>
  </g>
</svg>
