<svg width="40px" height="34px" viewBox="0 0 40 34" version="1.1" xmlns="http://www.w3.org/2000/svg" xmlns:xlink="http://www.w3.org/1999/xlink">
  <defs>
    <polygon id="path-1" points="39.9997 0.0003 0 0.0003 0 33.333 39.9997 33.333 39.9997 0.0003"></polygon>
  </defs>
  <g id="Page-1" stroke="none" stroke-width="1" fill="none" fill-rule="evenodd">
    <g id="camera">
      <g id="Clip-2"></g>
      <path d="M21.6667,10 C17.0657,10 13.3337,13.731 13.3337,18.333 C13.3337,22.935 17.0657,26.667 21.6667,26.667 C26.2677,26.667 29.9997,22.935 29.9997,18.333 C29.9997,13.731 26.2677,10 21.6667,10 L21.6667,10 Z M21.6667,13.333 C24.4237,13.333 26.6667,15.576 26.6667,18.333 C26.6667,21.09 24.4237,23.333 21.6667,23.333 C18.9097,23.333 16.6667,21.09 16.6667,18.333 C16.6667,15.576 18.9097,13.333 21.6667,13.333 L21.6667,13.333 Z M9.9997,13.333 C9.9997,12.413 9.2547,11.667 8.3337,11.667 C7.4117,11.667 6.6667,12.413 6.6667,13.333 C6.6667,14.254 7.4117,15 8.3337,15 C9.2547,15 9.9997,14.254 9.9997,13.333 L9.9997,13.333 Z M28.3337,0 L14.9997,0 L12.6567,3.516 C12.0377,4.443 10.9977,5 9.8827,5 L-0.0003,5 L-0.0003,33.333 L39.9997,33.333 L39.9997,5 L33.4507,5 C32.3357,5 31.2957,4.443 30.6767,3.516 L28.3337,0 Z M26.5497,3.333 L27.9037,5.365 C29.1427,7.223 31.2157,8.333 33.4507,8.333 L36.6667,8.333 L36.6667,30 L3.3337,30 L3.3337,8.333 L9.8827,8.333 C12.1177,8.333 14.1907,7.223 15.4297,5.365 L16.7837,3.333 L26.5497,3.333 Z M3.3337,3.333 L8.3337,3.333 L8.3337,1.666 L3.3337,1.666 L3.3337,3.333 Z" id="Fill-1" fill="#000000"></path>
    </g>
  </g>
</svg>
