<svg width="40px" height="40px" viewBox="-1 -1 42 42" version="1.1" xmlns="http://www.w3.org/2000/svg" xmlns:xlink="http://www.w3.org/1999/xlink">
  <defs>
    <polygon id="path-1" points="40 19.99975 40 0 0 0 0 19.99975 0 39.9995 40 39.9995"></polygon>
  </defs>
  <g id="Page-1" stroke="none" stroke-width="1" fill="none" fill-rule="evenodd">
    <g id="cancel">
      <path d="M30,27.5635 L22.347,19.9835 L29.924,12.3385 L27.564,9.9995 L19.989,17.6485 L12.342,10.0765 L10,12.4175 L17.655,20.0045 L10.077,27.6575 L12.419,29.9995 L20.01,22.3405 L27.661,29.9235 L30,27.5635 Z M20,-0.0005 C8.955,-0.0005 0,8.9545 0,19.9995 C0,31.0455 8.955,39.9995 20,39.9995 C31.045,39.9995 40,31.0455 40,19.9995 C40,8.9545 31.045,-0.0005 20,-0.0005 L20,-0.0005 Z M20,3.3335 C29.189,3.3335 36.667,10.8095 36.667,19.9995 C36.667,29.1905 29.189,36.6665 20,36.6665 C10.811,36.6665 3.333,29.1905 3.333,19.9995 C3.333,10.8095 10.811,3.3335 20,3.3335 L20,3.3335 Z" id="Fill-1" fill="#000000"></path>
    </g>
  </g>
</svg>
