<svg width="40px" height="40px" viewBox="-1 -1 42 42" version="1.1" xmlns="http://www.w3.org/2000/svg" xmlns:xlink="http://www.w3.org/1999/xlink">
  <g id="Page-1" stroke="none" stroke-width="1" fill="none" fill-rule="evenodd">
    <g id="exclamation" fill="#000000">
      <path d="M20,3.333 C29.189,3.333 36.667,10.81 36.667,20 C36.667,29.19 29.189,36.667 20,36.667 C10.811,36.667 3.333,29.19 3.333,20 C3.333,10.81 10.811,3.333 20,3.333 L20,3.333 L20,3.333 Z M20,0 C8.955,0 0,8.954 0,20 C0,31.046 8.955,40 20,40 C31.045,40 40,31.046 40,20 C40,8.954 31.045,0 20,0 L20,0 L20,0 Z" id="checkmark"></path>
      <polygon id="Path-2" points="17 9.04211426 18.5187378 24 20.5060425 24 22 9.04211426"></polygon>
      <circle id="Oval" cx="19.5" cy="28.5" r="1.5"></circle>
    </g>
  </g>
</svg>
