<svg width="16" height="20" viewBox="0 0 16 20"
  xmlns="http://www.w3.org/2000/svg">
  <path d="M2.826 20h10.348C15.05 20 16 19.061 16 17.231V8.428c0-1.014-.136-1.464-.774-2.102L9.534.75C8.914.14 8.411 0 7.472 0H2.826C.968 0 0 .93 0 2.76V17.23C0 19.061.958 20 2.826 20zm.058-1.164c-1.113 0-1.684-.572-1.684-1.633V2.787c0-1.032.571-1.633 1.694-1.633h4.52v5.65c0 1.07.562 1.577 1.636 1.577h5.76v8.822c0 1.06-.581 1.633-1.694 1.633H2.884zM9.176 7.283c-.445 0-.63-.169-.63-.6V1.388l6.021 5.894H9.176zm-.6 9.601v-3.98l-.048-1.707 1.258 1.248.842.826a.529.529 0 0 0 .397.169c.3 0 .532-.216.532-.507 0-.197-.087-.32-.222-.432L8.42 9.817c-.145-.14-.271-.188-.416-.188-.145 0-.271.047-.426.188l-2.914 2.684c-.125.113-.222.235-.222.432 0 .29.222.507.532.507.145 0 .3-.057.407-.17l.842-.825 1.258-1.248-.048 1.708v3.98c0 .3.261.543.57.543.31 0 .572-.244.572-.544z" fill="#FFF"></path>
</svg>