<svg width="40px" height="40px" viewBox="-1 -1 42 42" version="1.1" xmlns="http://www.w3.org/2000/svg" xmlns:xlink="http://www.w3.org/1999/xlink">
  <g id="Page-1" stroke="none" stroke-width="1" fill="none" fill-rule="evenodd">
    <g id="five" fill="#000000">
      <path d="M20,0 C8.955,0 0,8.954 0,20 C0,31.045 8.955,40 20,40 C31.045,40 40,31.045 40,20 C40,8.954 31.045,0 20,0 M20,3.333 C29.19,3.333 36.667,10.809 36.667,20 C36.667,29.19 29.19,36.666 20,36.666 C10.811,36.666 3.333,29.19 3.333,20 C3.333,10.809 10.811,3.333 20,3.333" id="Fill-1"></path>
      <path d="M24.891,14.752 L18.428,14.752 L18.359,17.259 C18.7116684,17.1363327 19.1946636,17.075 19.808,17.075 C20.6360041,17.075 21.3949965,17.1976654 22.085,17.443 C22.7750034,17.6883346 23.3691642,18.044831 23.8675,18.5125 C24.3658358,18.980169 24.7529986,19.5474967 25.029,20.2145 C25.3050014,20.8815033 25.443,21.6289959 25.443,22.457 C25.443,23.3770046 25.2858349,24.1973297 24.9715,24.918 C24.6571651,25.6386703 24.2240028,26.2481642 23.672,26.7465 C23.1199972,27.2448358 22.4645038,27.624332 21.7055,27.885 C20.9464962,28.145668 20.1223378,28.276 19.233,28.276 C17.8223263,28.276 16.6416714,27.9310035 15.691,27.241 C14.7403286,26.5509966 14.0886684,25.5083403 13.736,24.113 L17.347,23.285 C17.4390005,23.8676696 17.6843313,24.3391649 18.083,24.6995 C18.4816687,25.0598351 18.979997,25.24 19.578,25.24 C20.3140037,25.24 20.9004978,25.0100023 21.3375,24.55 C21.7745022,24.0899977 21.993,23.5073369 21.993,22.802 C21.993,22.2653307 21.8818344,21.8245017 21.6595,21.4795 C21.4371656,21.1344983 21.1458351,20.858501 20.7855,20.6515 C20.4251649,20.444499 20.0226689,20.3026671 19.578,20.226 C19.1333311,20.149333 18.6886689,20.111 18.244,20.111 C17.6766638,20.111 17.1055029,20.1646661 16.5305,20.272 C15.9554971,20.3793339 15.3996693,20.5249991 14.863,20.709 L15.047,11.716 L24.891,11.716 L24.891,14.752 Z" id="5"></path>
    </g>
  </g>
</svg>
