<svg width="12px" height="16px" viewBox="0 0 12 16" version="1.1" xmlns="http://www.w3.org/2000/svg" xmlns:xlink="http://www.w3.org/1999/xlink">
    <g stroke="none" stroke-width="1" fill="none" fill-rule="evenodd">
        <g transform="translate(-877.000000, -317.000000)" fill="#000000" fill-rule="nonzero">
            <path d="M887.705714,320.049524 L881.550476,320.049524 L881.484762,322.437143 C881.820637,322.320317 882.280632,322.261905 882.864762,322.261905 C883.653337,322.261905 884.376187,322.378729 885.033333,322.612381 C885.690479,322.846033 886.256347,323.185553 886.730952,323.630952 C887.205558,324.076351 887.574284,324.616664 887.837143,325.251905 C888.100001,325.887146 888.231429,326.599044 888.231429,327.387619 C888.231429,328.263814 888.081748,329.045076 887.782381,329.731429 C887.483014,330.417781 887.070479,330.998252 886.544762,331.472857 C886.019045,331.947463 885.394766,332.308888 884.671905,332.557143 C883.949044,332.805398 883.164131,332.929524 882.317143,332.929524 C880.973644,332.929524 879.849211,332.600956 878.94381,331.94381 C878.038408,331.286663 877.417779,330.293657 877.081905,328.964762 L880.520952,328.17619 C880.608572,328.731114 880.84222,329.180157 881.221905,329.523333 C881.601589,329.86651 882.076188,330.038095 882.645714,330.038095 C883.34667,330.038095 883.905236,329.81905 884.321429,329.380952 C884.737621,328.942855 884.945714,328.38794 884.945714,327.71619 C884.945714,327.205077 884.839842,326.78524 884.628095,326.456667 C884.416348,326.128094 884.138891,325.865239 883.795714,325.668095 C883.452538,325.470951 883.069208,325.335873 882.645714,325.262857 C882.22222,325.189841 881.798732,325.153333 881.375238,325.153333 C880.834918,325.153333 880.290955,325.204444 879.743333,325.306667 C879.195712,325.408889 878.666352,325.547618 878.155238,325.722857 L878.330476,317.158095 L887.705714,317.158095 L887.705714,320.049524 Z"></path>
        </g>
    </g>
</svg>
