<svg width="40px" height="40px" viewBox="-1 -1 42 42" version="1.1" xmlns="http://www.w3.org/2000/svg" xmlns:xlink="http://www.w3.org/1999/xlink">
  <g id="Page-1" stroke="none" stroke-width="1" fill="none" fill-rule="evenodd">
    <g id="four" fill="#000000">
      <path d="M20,0 C8.955,0 0,8.954 0,20 C0,31.045 8.955,40 20,40 C31.045,40 40,31.045 40,20 C40,8.954 31.045,0 20,0 M20,3.333 C29.19,3.333 36.667,10.809 36.667,20 C36.667,29.19 29.19,36.666 20,36.666 C10.811,36.666 3.333,29.19 3.333,20 C3.333,10.809 10.811,3.333 20,3.333" id="Fill-1"></path>
      <path d="M20.659,24.734 L13.552,24.734 L13.552,21.836 L20.199,11.716 L23.971,11.716 L23.971,21.836 L26.064,21.836 L26.064,24.734 L23.971,24.734 L23.971,28 L20.659,28 L20.659,24.734 Z M20.659,16.224 L20.613,16.224 L17.002,21.836 L20.659,21.836 L20.659,16.224 Z" id="4"></path>
    </g>
  </g>
</svg>
