<svg width="40px" height="40px" viewBox="-1 -1 42 42" version="1.1" xmlns="http://www.w3.org/2000/svg" xmlns:xlink="http://www.w3.org/1999/xlink">
  <defs>
    <polygon id="sparkle-help-icon-mask" points="40 39.9997 40 0 0.0003 0 0.0003 39.9997 40 39.9997"></polygon>
  </defs>
  <g id="Page-1" stroke="none" stroke-width="1" fill="none" fill-rule="evenodd">
    <g id="help">
      <g id="Clip-2"></g>
      <path d="M24.4043,11.6707 C23.3903,10.6447 21.8793,10.0787 20.1533,10.0787 C16.5203,10.0787 14.1703,12.6627 14.1703,16.6627 L17.5213,16.6627 C17.5213,14.1867 18.9033,13.3077 20.0843,13.3077 C21.1413,13.3077 22.2623,14.0097 22.3583,15.3517 C22.4623,16.7627 21.7093,17.4797 20.7553,18.3867 C18.4013,20.6247 18.3573,21.7087 18.3693,24.1667 L21.7103,24.1667 C21.6893,23.0607 21.7613,22.1617 23.2683,20.5377 C24.3963,19.3207 25.7993,17.8067 25.8283,15.5007 C25.8463,13.9577 25.3553,12.6337 24.4043,11.6707 M22.0833,28.3337 C22.0833,29.4837 21.1523,30.4177 20.0003,30.4177 C18.8513,30.4177 17.9163,29.4837 17.9163,28.3337 C17.9163,27.1827 18.8513,26.2487 20.0003,26.2487 C21.1523,26.2487 22.0833,27.1827 22.0833,28.3337 M20.0003,-0.0003 C8.9553,-0.0003 0.0003,8.9547 0.0003,19.9997 C0.0003,31.0457 8.9553,39.9997 20.0003,39.9997 C31.0453,39.9997 40.0003,31.0457 40.0003,19.9997 C40.0003,8.9547 31.0453,-0.0003 20.0003,-0.0003 M20.0003,3.3337 C29.1893,3.3337 36.6663,10.8097 36.6663,19.9997 C36.6663,29.1907 29.1893,36.6667 20.0003,36.6667 C10.8103,36.6667 3.3333,29.1907 3.3333,19.9997 C3.3333,10.8097 10.8103,3.3337 20.0003,3.3337" id="Fill-1" fill="#000000" mask="url(#sparkle-help-icon-mask)"></path>
    </g>
  </g>
</svg>
