<svg xmlns="http://www.w3.org/2000/svg" width="29.699" height="42" viewBox="0 0 29.699 42"><path d="M4.234 41h21.229a3.127 3.127 0 0 0 3.213-3.371C27.354 26 19.464 26.192 19.464 21s7.991-4.9 9.212-16.629A3.133 3.133 0 0 0 25.463 1H4.234a3.135 3.135 0 0 0-3.213 3.371c1.22 11.725 9.212 11.34 9.212 16.629s-7.89 5-9.212 16.629A3.126 3.126 0 0 0 4.234 41z" fill="none" stroke="#58595b" stroke-linecap="round" stroke-linejoin="round" stroke-width="2"></path><path d="M23.243 37.923H6.496c-1.5 0-1.923-1.731-.871-2.8 2.546-2.581 7.686-4.429 7.686-7.388v-9.808c0-1.909-3.654-3.365-5.914-6.462-.373-.511-.336-1.231.613-1.231h13.724a.73.73 0 0 1 .615 1.226c-2.228 3.1-5.961 4.548-5.961 6.466v9.805c0 2.936 5.357 4.519 7.731 7.391.956 1.158.621 2.801-.876 2.801z" fill="#0c2951"></path></svg>