<svg width="32px" height="33px" viewBox="0 0 32 33" version="1.1" xmlns="http://www.w3.org/2000/svg" xmlns:xlink="http://www.w3.org/1999/xlink">
  <g stroke="none" stroke-width="1" fill="none" fill-rule="evenodd">
    <g fill="#FFFFFF" fill-rule="nonzero">
      <path d="M22.9630298,0.836134868 C22.897385,0.623272954 22.651037,0.45072044 22.4151488,0.454609943 L14.090532,2.08042237 L9.54697926,0.497748072 C9.3103697,0.501637576 9.06366096,0.674543681 8.99801624,0.887759186 L6,10.7469431 L26,10.7469431 L22.9630298,0.836134868 Z M16,13.9282297 C9.94117244,13.9282297 4.3752714,15.4687362 0,18.0451887 L32,18.0451887 C27.6203406,15.4687362 22.0588276,13.9282297 16,13.9282297 Z M22.8379288,22.1621478 C20.2509366,22.1621478 18.1085599,24.0610635 17.7388798,26.5257679 C16.5898741,26.2731632 15.4005188,26.2716393 14.2511288,26.5200527 C13.8545489,24.0862096 11.7267749,22.2192982 9.161687,22.2192982 C6.31568834,22.2192982 4,24.5152184 4,27.3369218 C4,30.1586252 6.31530406,32.4545455 9.161687,32.4545455 C11.7594389,32.4545455 13.9091171,30.5400086 14.2657316,28.0604453 C15.406283,27.7567864 16.6067826,27.7613585 17.7454126,28.0745423 C18.1323854,30.5194345 20.2655394,32.3973951 22.838313,32.3973951 C25.6843116,32.3973951 28,30.1018559 28,27.2797714 C27.9992314,24.458068 25.6839274,22.1621478 22.8379288,22.1621478 Z M9,30.3960659 C7.3430694,30.3960659 6,29.0137255 6,27.3083466 C6,25.6029678 7.3430694,24.2206273 9,24.2206273 C10.6569306,24.2206273 12,25.6029678 12,27.3083466 C12,29.0137255 10.6569306,30.3960659 9,30.3960659 Z M23,30.3960659 C21.3430694,30.3960659 20,29.0137255 20,27.3083466 C20,25.6029678 21.3430694,24.2206273 23,24.2206273 C24.6569306,24.2206273 26,25.6029678 26,27.3083466 C25.9996946,29.0137255 24.6566252,30.3960659 23,30.3960659 Z"></path>
    </g>
  </g>
</svg>
