<svg xmlns="http://www.w3.org/2000/svg" width="17.997" height="17.997" viewBox="0 0 17.997 17.997">
  <g transform="translate(-0.001 0)">
    <path data-name="Path 286" d="M74.249,1.206a4.127,4.127,0,0,0-5.828,0h0L65.878,3.748l1.174,1.173,2.543-2.544h0A2.462,2.462,0,0,1,73.075,5.86L69.259,9.676a2.461,2.461,0,0,1-3.481,0L64.6,10.849a4.121,4.121,0,0,0,5.828,0l3.816-3.816A4.126,4.126,0,0,0,74.249,1.206Z" transform="translate(-57.456)" fill="#58595b"/>
    <path data-name="Path 287" d="M5.861,63.388h0a2.462,2.462,0,0,1-3.481-3.482L6.195,56.09a2.464,2.464,0,0,1,3.481,0l1.174-1.174a4.126,4.126,0,0,0-5.828,0L1.206,58.732a4.122,4.122,0,0,0,5.828,5.829h0l2.543-2.544L8.4,60.844Z" transform="translate(0 -47.768)" fill="#58595b"/>
  </g>
</svg>
