<svg width="122px" height="20px" viewBox="784 -230 122 20" version="1.1" xmlns="http://www.w3.org/2000/svg" xmlns:xlink="http://www.w3.org/1999/xlink">
  <path d="M792.485772,-229.521341 C793.552851,-229.521341 794.530991,-229.381607 795.420224,-229.102134 C796.309456,-228.822661 797.075878,-228.437333 797.719512,-227.946138 C798.363147,-227.454943 798.862803,-226.866365 799.218496,-226.180386 C799.574189,-225.494407 799.752033,-224.736454 799.752033,-223.906504 L799.752033,-223.677846 L795.051829,-223.677846 L795.051829,-223.830285 C795.051829,-224.507795 794.780829,-225.01592 794.238821,-225.354675 C793.696813,-225.69343 792.993907,-225.862805 792.130081,-225.862805 C791.435633,-225.862805 790.88093,-225.727305 790.465955,-225.456301 C790.05098,-225.185297 789.843496,-224.804203 789.843496,-224.313008 C789.843496,-223.889564 790.08909,-223.533877 790.580285,-223.245935 C791.071479,-222.957993 791.901417,-222.686993 793.070122,-222.432927 C795.966478,-221.80623 797.905822,-221.035574 798.888211,-220.120935 C799.870601,-219.240172 800.361789,-218.09689 800.361789,-216.691057 C800.361789,-215.691729 800.175476,-214.810979 799.802846,-214.04878 C799.430215,-213.286582 798.900918,-212.651425 798.214939,-212.143293 C797.52896,-211.63516 796.699022,-211.254066 795.725102,-211 C794.751181,-210.745934 793.662946,-210.618902 792.460366,-210.618902 C791.274723,-210.618902 790.199192,-210.758637 789.23374,-211.03811 C788.268288,-211.317583 787.442585,-211.732551 786.756606,-212.283028 C786.070627,-212.833505 785.537095,-213.511005 785.155996,-214.315549 C784.774896,-215.120092 784.58435,-216.04742 784.58435,-217.097561 L789.309959,-217.097561 C789.360773,-216.132109 789.661413,-215.420734 790.21189,-214.963415 C790.762367,-214.506095 791.596539,-214.277439 792.714431,-214.277439 C793.595194,-214.277439 794.302335,-214.438345 794.835874,-214.760163 C795.369413,-215.08198 795.636179,-215.539292 795.636179,-216.132114 C795.636179,-216.453931 795.530319,-216.7334 795.318598,-216.970528 C795.106876,-217.207657 794.814704,-217.415141 794.442073,-217.592988 C794.069443,-217.770834 793.641771,-217.927506 793.159045,-218.063008 C792.676319,-218.19851 792.172428,-218.325541 791.647358,-218.444106 C790.393964,-218.732048 789.339605,-219.066563 788.484248,-219.447663 C787.628891,-219.828762 786.964095,-220.239496 786.489837,-220.679878 C785.575199,-221.560641 785.117886,-222.670048 785.117886,-224.00813 C785.117886,-224.956644 785.329605,-225.778113 785.753049,-226.472561 C786.176493,-227.167009 786.73543,-227.73865 787.429878,-228.1875 C788.124326,-228.63635 788.91192,-228.970866 789.792683,-229.191057 C790.673446,-229.411248 791.571134,-229.521341 792.485772,-229.521341 L792.485772,-229.521341 Z M811.235772,-229.140244 C812.201224,-229.140244 813.081974,-229.017447 813.878049,-228.77185 C814.674123,-228.526252 815.355858,-228.157862 815.923272,-227.666667 C816.490687,-227.175472 816.935296,-226.565722 817.257114,-225.837398 C817.578931,-225.109075 817.739837,-224.253731 817.739837,-223.271341 C817.739837,-221.204935 817.202072,-219.65092 816.126524,-218.609248 C815.050977,-217.567576 813.403805,-217.046748 811.184959,-217.046748 L807.297764,-217.046748 L807.297764,-211 L802.572154,-211 L802.572154,-229.140244 L811.235772,-229.140244 Z M810.549797,-220.705285 C811.311996,-220.705285 811.913277,-220.883128 812.353659,-221.238821 C812.79404,-221.594514 813.014228,-222.170389 813.014228,-222.966463 C813.014228,-223.779476 812.789806,-224.380757 812.340955,-224.770325 C811.892105,-225.159894 811.295058,-225.354675 810.549797,-225.354675 L807.297764,-225.354675 L807.297764,-220.705285 L810.549797,-220.705285 Z M829.706301,-229.140244 L836.489837,-211 L831.560976,-211 L830.443089,-214.252033 L824.11687,-214.252033 L822.973577,-211 L818.120935,-211 L824.904472,-229.140244 L829.706301,-229.140244 Z M825.20935,-217.75813 L829.325203,-217.75813 L827.318089,-224.109756 L827.267276,-224.109756 L825.20935,-217.75813 Z M847.236789,-229.140244 C848.015925,-229.140244 848.782347,-229.042853 849.536077,-228.848069 C850.289807,-228.653285 850.954604,-228.344176 851.530488,-227.920732 C852.106371,-227.497288 852.572153,-226.963757 852.927846,-226.320122 C853.283538,-225.676487 853.461382,-224.9143 853.461382,-224.033537 C853.461382,-223.017271 853.224257,-222.094178 852.75,-221.264228 C852.275743,-220.434278 851.564368,-219.841465 850.615854,-219.485772 L850.615854,-219.434959 C851.378053,-219.231706 851.996271,-218.744753 852.470528,-217.974085 C852.944786,-217.203418 853.224254,-216.055902 853.308943,-214.531504 C853.359756,-213.464426 853.448678,-212.65566 853.575711,-212.105183 C853.702745,-211.554706 853.850948,-211.186315 854.020325,-211 L849.345528,-211 C849.091462,-211.389568 848.930556,-212.227975 848.862805,-213.515244 C848.761178,-214.853326 848.600272,-215.751014 848.380081,-216.208333 C847.956637,-217.13991 847.245262,-217.605691 846.245935,-217.605691 L842.587398,-217.605691 L842.587398,-211 L837.861789,-211 L837.861789,-229.140244 L847.236789,-229.140244 Z M846.627033,-221.264228 C847.287605,-221.264228 847.804199,-221.442071 848.176829,-221.797764 C848.54946,-222.153457 848.735772,-222.67852 848.735772,-223.372967 C848.735772,-224.016602 848.519819,-224.50779 848.087907,-224.846545 C847.655994,-225.1853 847.101291,-225.354675 846.42378,-225.354675 L842.587398,-225.354675 L842.587398,-221.264228 L846.627033,-221.264228 Z M860.930894,-229.140244 L860.930894,-222.178862 L866.901423,-229.140244 L872.770325,-229.140244 L866.063008,-222.001016 L873.60874,-211 L867.739837,-211 L862.861789,-218.621951 L860.930894,-216.589431 L860.930894,-211 L856.205285,-211 L856.205285,-229.140244 L860.930894,-229.140244 Z M879.757114,-229.140244 L879.757114,-215.065041 L888.21748,-215.065041 L888.21748,-211 L875.031504,-211 L875.031504,-229.140244 L879.757114,-229.140244 Z M905.011179,-229.140244 L905.011179,-225.354675 L895.280488,-225.354675 L895.280488,-222.178862 L904.172764,-222.178862 L904.172764,-218.520325 L895.280488,-218.520325 L895.280488,-215.065041 L905.265244,-215.065041 L905.265244,-211 L890.554878,-211 L890.554878,-229.140244 L905.011179,-229.140244 Z" id="SPARKLE" stroke="none" fill="#F3F3F3" fill-rule="evenodd"></path>
</svg>
