<svg width="122" height="20" viewBox="784 -230 122 20" xmlns="http://www.w3.org/2000/svg"><path d="M792.486-229.521c1.067 0 2.045.14 2.934.419.89.28 1.656.665 2.3 1.156a5.239 5.239 0 011.498 1.766c.356.686.534 1.444.534 2.273v.23h-4.7v-.153c0-.678-.271-1.186-.813-1.525-.542-.338-1.245-.508-2.109-.508-.694 0-1.25.136-1.664.407-.415.27-.623.652-.623 1.143 0 .423.246.78.737 1.067.491.288 1.321.559 2.49.813 2.896.627 4.836 1.397 5.818 2.312.983.88 1.474 2.024 1.474 3.43 0 1-.187 1.88-.56 2.642a5.16 5.16 0 01-1.587 1.906c-.686.508-1.516.889-2.49 1.143-.974.254-2.062.381-3.265.381-1.185 0-2.26-.14-3.226-.42-.966-.279-1.791-.694-2.477-1.244a5.698 5.698 0 01-1.601-2.033c-.381-.804-.572-1.731-.572-2.782h4.726c.05.966.351 1.677.902 2.135.55.457 1.385.686 2.502.686.881 0 1.588-.161 2.122-.483.533-.322.8-.78.8-1.372 0-.322-.106-.601-.317-.839-.212-.237-.504-.444-.877-.622a8.012 8.012 0 00-1.283-.47 30.254 30.254 0 00-1.512-.381c-1.253-.288-2.307-.623-3.163-1.004-.855-.38-1.52-.791-1.994-1.232-.915-.88-1.372-1.99-1.372-3.328 0-.949.212-1.77.635-2.465a5.315 5.315 0 011.677-1.714 7.803 7.803 0 012.363-1.004c.88-.22 1.778-.33 2.693-.33zm18.75.38c.965 0 1.846.124 2.642.37.796.245 1.478.613 2.045 1.104a5.115 5.115 0 011.334 1.83c.322.728.483 1.583.483 2.566 0 2.066-.538 3.62-1.613 4.662-1.076 1.041-2.723 1.562-4.942 1.562h-3.887V-211h-4.726v-18.14h8.664zm-.686 8.436c.762 0 1.363-.178 1.804-.534.44-.356.66-.931.66-1.727 0-.813-.224-1.415-.673-1.804-.449-.39-1.046-.585-1.791-.585h-3.252v4.65h3.252zm19.156-8.435L836.49-211h-4.929l-1.118-3.252h-6.326L822.974-211h-4.853l6.783-18.14h4.802zm-4.497 11.382h4.116l-2.007-6.352h-.05l-2.059 6.352zm22.028-11.382c.779 0 1.545.097 2.3.292a5.762 5.762 0 011.993.927 4.902 4.902 0 011.398 1.6c.356.645.533 1.407.533 2.287 0 1.017-.237 1.94-.711 2.77-.474.83-1.186 1.423-2.134 1.778v.051c.762.203 1.38.69 1.855 1.46.474.772.753 1.92.838 3.443.05 1.068.14 1.876.267 2.427.127.55.275.919.444 1.105h-4.674c-.255-.39-.415-1.228-.483-2.515-.102-1.338-.263-2.236-.483-2.693-.423-.932-1.135-1.398-2.134-1.398h-3.659V-211h-4.725v-18.14h9.375zm-.61 7.876c.66 0 1.177-.178 1.55-.534.372-.355.559-.88.559-1.575 0-.644-.216-1.135-.648-1.474-.432-.338-.987-.508-1.664-.508h-3.837v4.09h4.04zm14.304-7.876v6.961l5.97-6.961h5.87l-6.708 7.139L873.609-211h-5.87l-4.877-7.622-1.931 2.033V-211h-4.726v-18.14h4.726zm18.826 0v14.075h8.46V-211h-13.185v-18.14h4.725zm25.254 0v3.785h-9.73v3.176h8.892v3.659h-8.893v3.455h9.985V-211h-14.71v-18.14h14.456z" fill="#F3F3F3" fill-rule="evenodd"/></svg>