<svg width="40px" height="37px" viewBox="0 0 40 37" version="1.1" xmlns="http://www.w3.org/2000/svg" xmlns:xlink="http://www.w3.org/1999/xlink">
  <g id="Page-1" stroke="none" stroke-width="1" fill="none" fill-rule="evenodd">
    <path d="M0,-0.0003 L0,28.3017 L6.666,28.3017 L6.666,36.6667 L18.333,28.3017 L40,28.3017 L40,-0.0003 L0,-0.0003 Z M3.334,3.3337 L36.667,3.3337 L36.667,24.9997 L17.262,24.9997 L10,30.1747 L10,24.9997 L3.334,24.9997 L3.334,3.3337 Z M8.333,9.9997 L31.666,9.9997 L31.666,8.3337 L8.333,8.3337 L8.333,9.9997 Z M8.333,14.9997 L31.666,14.9997 L31.666,13.3327 L8.333,13.3327 L8.333,14.9997 Z M8.333,19.9997 L21.666,19.9997 L21.666,18.3337 L8.333,18.3337 L8.333,19.9997 Z" id="message" fill="#000000"></path>
  </g>
</svg>
