<svg width="23px" height="25px" viewBox="0 0 23 25" version="1.1" xmlns="http://www.w3.org/2000/svg" xmlns:xlink="http://www.w3.org/1999/xlink">
  <g id="Page-1" stroke="none" stroke-width="1" fill="none" fill-rule="evenodd">
    <path d="M2.444,0.809 L2.444,2.997 L0.256,2.997 L0.256,5.184 L2.444,5.184 L2.444,7.371 L4.632,7.371 L4.632,5.184 L6.819,5.184 L6.819,2.997 L4.632,2.997 L4.632,0.809 L2.444,0.809 Z M11.194,7.371 L10.707,7.619 L0,12.973 L11.194,18.57 L22.392,12.973 L11.194,7.371 Z M11.198,9.82 L17.5,12.973 L11.194,16.122 L4.892,12.973 L11.198,9.82 Z M4.597,17.301 L0,19.403 L11.194,25 L22.388,19.403 L17.799,17.318 L15.355,18.54 L17.5,19.403 L11.194,22.556 L4.888,19.403 L7.041,18.523 L4.597,17.301 Z" id="multi" fill="#231F20"></path>
  </g>
</svg>
