<svg width="15" height="15" viewBox="-1 -1 42 42" xmlns="http://www.w3.org/2000/svg"><path d="M30 27.564l-7.653-7.58 7.577-7.646L27.564 10l-7.575 7.648-7.647-7.572L10 12.418l7.655 7.588-7.578 7.652L12.419 30l7.591-7.66 7.651 7.584L30 27.564zM20 0C8.955 0 0 8.954 0 20s8.955 20 20 20 20-8.954 20-20S31.045 0 20 0zm0 3.333c9.189 0 16.667 7.476 16.667 16.666 0 9.192-7.478 16.668-16.667 16.668-9.189 0-16.667-7.477-16.667-16.668 0-9.19 7.478-16.665 16.667-16.665z" fill="#000" fill-rule="evenodd"></path></svg>