<svg width="10px" height="20px" viewBox="0 0 10 20" version="1.1" xmlns="http://www.w3.org/2000/svg" xmlns:xlink="http://www.w3.org/1999/xlink">
    <g stroke="none" stroke-width="1" fill="none" fill-rule="evenodd">
        <g transform="translate(-711.000000, -406.000000)" fill="#000000" fill-rule="nonzero">
            <path d="M719.347619,409.446476 C718.50381,410.164571 717.251429,410.149333 716.552381,409.411238 C715.853333,408.674095 715.970476,407.494095 716.813333,406.776 C717.657143,406.056952 718.907619,406.073143 719.607619,406.810286 C720.305714,407.548381 720.190476,408.728381 719.347619,409.446476 M711.82,422.413143 C712.715238,419.574095 714.411429,416.17219 714.711429,415.311238 C715.145714,414.062667 714.375238,413.507429 711.949524,415.642667 C711.794286,415.329333 711.575238,414.971238 711.410476,414.627429 C714.178095,411.616 719.878095,410.936 717.939048,415.600762 C716.727619,418.514095 715.861905,420.47981 715.366667,421.997905 C714.644762,424.209333 716.468571,423.31219 718.254286,421.662667 C718.497143,422.060762 718.57619,422.187429 718.82,422.644571 C714.852381,426.41981 710.451429,426.75219 711.82,422.413143"></path>
        </g>
    </g>
</svg>
