<svg width="40px" height="40px" viewBox="-1 -1 42 42" version="1.1" xmlns="http://www.w3.org/2000/svg" xmlns:xlink="http://www.w3.org/1999/xlink">
  <defs>
    <polygon id="path-1" points="40 19.9999 40 0 0 0 0 19.9999 0 39.9998 40 39.9998 40 19.9999"></polygon>
  </defs>
  <g id="Page-1" stroke="none" stroke-width="1" fill="none" fill-rule="evenodd">
    <g id="note">
      <path d="M24.515,13.0688 C23.629,13.8228 22.314,13.8068 21.58,13.0318 C20.846,12.2578 20.969,11.0188 21.854,10.2648 C22.74,9.5098 24.053,9.5268 24.788,10.3008 C25.521,11.0758 25.4,12.3148 24.515,13.0688 M16.611,26.6838 C17.551,23.7028 19.332,20.1308 19.647,19.2268 C20.103,17.9158 19.294,17.3328 16.747,19.5748 C16.584,19.2458 16.354,18.8698 16.181,18.5088 C19.087,15.3468 25.072,14.6328 23.036,19.5308 C21.764,22.5898 20.855,24.6538 20.335,26.2478 C19.577,28.5698 21.492,27.6278 23.367,25.8958 C23.622,26.3138 23.705,26.4468 23.961,26.9268 C19.795,30.8908 15.174,31.2398 16.611,26.6838 M20,-0.0002 C8.955,-0.0002 0,8.9538 0,19.9998 C0,31.0458 8.955,39.9998 20,39.9998 C31.045,39.9998 40,31.0458 40,19.9998 C40,8.9538 31.045,-0.0002 20,-0.0002 M20,3.3328 C29.189,3.3328 36.667,10.8098 36.667,19.9998 C36.667,29.1908 29.189,36.6668 20,36.6668 C10.811,36.6668 3.333,29.1908 3.333,19.9998 C3.333,10.8098 10.811,3.3328 20,3.3328" id="Fill-1" fill="#000000"></path>
    </g>
  </g>
</svg>
