<svg width="21px" height="26px" viewBox="0 0 21 26" version="1.1" xmlns="http://www.w3.org/2000/svg" xmlns:xlink="http://www.w3.org/1999/xlink">
  <g stroke="none" stroke-width="1" fill="none" fill-rule="evenodd" stroke-linejoin="round">
    <g transform="translate(1.000000, 1.000000)" stroke="#FFFFFF" stroke-width="1.786">
      <path d="M17.857,9.668 L17.857,20.535 C17.857,22.0145708 16.6575708,23.214 15.178,23.214 L2.679,23.214 C1.19942916,23.214 8.70414851e-14,22.0145708 8.70414851e-14,20.535 L8.70414851e-14,2.678 C0.00055213901,1.19881969 1.19981959,-2.84217094e-14 2.679,-2.84217094e-14 L8.19,-2.84217094e-14 C8.6633519,-2.84217094e-14 9.11726124,0.188318024 9.452,0.523 L17.335,8.406 C17.669682,8.74073876 17.8577918,9.1946481 17.858,9.668 L17.857,9.668 Z"></path>
      <path d="M8.929,0.446 L8.929,7.146 C8.929,8.13238056 9.72861944,8.932 10.715,8.932 L17.415,8.932 M4.464,13.392 L13.393,13.392 M4.464,17.857 L13.393,17.857" stroke-linecap="round"></path>
    </g>
  </g>
</svg>
