<svg xmlns="http://www.w3.org/2000/svg" width="30.255" height="22.187" viewBox="0 0 30.255 22.187"><path d="M36.171,91.093a4.84,4.84,0,0,1-3.53-1.629A6.3,6.3,0,0,1,31,85.62,5.263,5.263,0,0,1,32.335,81.6,5.375,5.375,0,0,1,40,81.609a5.252,5.252,0,0,1,1.34,4.011A6.315,6.315,0,0,1,39.7,89.464,4.828,4.828,0,0,1,36.171,91.093ZM40.331,85.547Zm4.149,16.64H27.862a1.747,1.747,0,0,1-1.387-.673,1.9,1.9,0,0,1-.332-1.626,8.307,8.307,0,0,1,3.8-5.111,12.529,12.529,0,0,1,12.447-.026,8.261,8.261,0,0,1,3.806,5.14,1.908,1.908,0,0,1-.335,1.625A1.745,1.745,0,0,1,44.48,102.187ZM24.258,91.346c-2.218,0-4.168-2.062-4.349-4.6a4.444,4.444,0,0,1,1.135-3.38,4.484,4.484,0,0,1,6.425.008A4.409,4.409,0,0,1,28.6,86.75C28.422,89.284,26.472,91.346,24.258,91.346ZM28.4,93.328a9.566,9.566,0,0,0-4.138-.813,9.75,9.75,0,0,0-5.078,1.363,6.838,6.838,0,0,0-3.126,4.2,1.726,1.726,0,0,0,.3,1.472,1.6,1.6,0,0,0,1.266.615h7a.5.5,0,0,0,.5-.414c.007-.04.016-.079.026-.119a9.13,9.13,0,0,1,3.638-5.283.5.5,0,0,0-.04-.844c-.1-.058-.212-.119-.342-.182Z" transform="translate(-16.001 -80)" fill="#0c2951"/></svg>
