<svg class="modalV2__header__icon" width="40" height="40" viewBox="-1 -1 42 42" xmlns="http://www.w3.org/2000/svg"><defs><path id="a" d="M40 40V0H0v40h40z"></path></defs><g fill="none" fill-rule="evenodd"><path d="M24.404 11.67c-1.014-1.025-2.525-1.591-4.25-1.591-3.634 0-5.984 2.584-5.984 6.584h3.351c0-2.476 1.382-3.355 2.563-3.355 1.057 0 2.178.702 2.274 2.044.104 1.41-.649 2.128-1.603 3.035-2.354 2.238-2.398 3.322-2.386 5.78h3.341c-.02-1.106.051-2.005 1.558-3.63 1.128-1.216 2.531-2.73 2.56-5.036.018-1.543-.473-2.867-1.424-3.83m-2.32 16.663a2.083 2.083 0 1 1-4.168 0 2.083 2.083 0 1 1 4.167 0M20 0C8.955 0 0 8.955 0 20c0 11.046 8.955 20 20 20s20-8.954 20-20C40 8.955 31.045 0 20 0m0 3.334c9.19 0 16.666 7.476 16.666 16.666 0 9.19-7.477 16.667-16.666 16.667-9.19 0-16.667-7.476-16.667-16.667C3.333 10.81 10.81 3.334 20 3.334" fill="#000" mask="url(#a)"></path></g></svg>