<svg width="40px" height="40px" viewBox="-1 -1 42 42" version="1.1" xmlns="http://www.w3.org/2000/svg" xmlns:xlink="http://www.w3.org/1999/xlink">
  <defs>
    <polygon id="path-1" points="0.0003 40 40 40 40 0.0003 0.0003 0.0003"></polygon>
  </defs>
  <g id="Page-1" stroke="none" stroke-width="1" fill="none" fill-rule="evenodd">
    <g id="star">
      <mask id="mask-2" fill="white">
        <use xlink:href="#path-1"></use>
      </mask>
      <g id="Clip-2"></g>
      <path d="M16.9433,16.1433 L10.0003,17.1023 L15.0533,21.9593 L13.8203,28.8573 L20.0003,25.5523 L26.1803,28.8573 L24.9473,21.9593 L30.0003,17.1023 L23.0563,16.1433 L20.0003,9.8373 L16.9433,16.1433 Z M20.0003,0.0003 C8.9553,0.0003 0.0003,8.9543 0.0003,20.0003 C0.0003,31.0453 8.9553,40.0003 20.0003,40.0003 C31.0453,40.0003 40.0003,31.0453 40.0003,20.0003 C40.0003,8.9543 31.0453,0.0003 20.0003,0.0003 L20.0003,0.0003 Z M20.0003,3.3333 C29.1903,3.3333 36.6663,10.8093 36.6663,20.0003 C36.6663,29.1903 29.1903,36.6663 20.0003,36.6663 C10.8093,36.6663 3.3333,29.1903 3.3333,20.0003 C3.3333,10.8093 10.8093,3.3333 20.0003,3.3333 L20.0003,3.3333 Z" id="Fill-1" fill="#000000" mask="url(#mask-2)"></path>
    </g>
  </g>
</svg>
