<svg width="31px" height="22px" viewBox="0 0 79 55" version="1.1" xmlns="http://www.w3.org/2000/svg" xmlns:xlink="http://www.w3.org/1999/xlink">
  <defs>
    <rect id="path-1" x="0" y="0" width="79" height="55" rx="3"></rect>
    <mask id="mask-2" maskContentUnits="userSpaceOnUse" maskUnits="objectBoundingBox" x="0" y="0" width="79" height="55" fill="white">
      <use xlink:href="#path-1"></use>
    </mask>
  </defs>
  <g id="Page-1" stroke="none" stroke-width="1" fill="none" fill-rule="evenodd">
    <g id="text-input">
      <use id="Rectangle" stroke="#D6D6D6" mask="url(#mask-2)" stroke-width="10" xlink:href="#path-1"></use>
      <path d="M15.08,36.02 C15.08,37.22 16.01,38.18 17.21,38.18 C18.17,38.18 18.95,37.64 19.34,36.74 L20.81,33.29 L30.05,33.29 L31.46,36.59 C31.88,37.55 32.6,38.18 33.68,38.18 C34.91,38.18 35.87,37.19 35.87,35.96 C35.87,35.66 35.78,35.36 35.63,35.03 L28.31,18.5 C27.8,17.36 26.9,16.67 25.64,16.67 L25.37,16.67 C24.11,16.67 23.18,17.36 22.67,18.5 L15.35,35.03 C15.2,35.36 15.08,35.69 15.08,36.02 Z M22.52,29.21 L25.43,22.28 L28.34,29.21 L22.52,29.21 Z M37.0062501,35.69 C37.0062501,36.98 38.0262501,38 39.3162501,38 L46.9962501,38 C51.7362501,38 54.8562501,36.08 54.8562501,32.24 C54.8562501,29.36 53.3562501,27.95 50.9262501,27.02 C52.4262501,26.18 53.6862501,24.86 53.6862501,22.49 C53.6862501,20.99 53.2062501,19.82 52.2462501,18.86 C51.0462501,17.66 49.1562501,17 46.7562501,17 L39.3162501,17 C38.0262501,17 37.0062501,18.02 37.0062501,19.31 L37.0062501,35.69 Z M41.5062501,25.49 L41.5062501,21.05 L46.0662501,21.05 C48.0162501,21.05 49.0962501,21.83 49.0962501,23.21 L49.0962501,23.27 C49.0962501,24.83 47.8062501,25.49 45.7662501,25.49 L41.5062501,25.49 Z M41.5062501,33.95 L41.5062501,29.33 L46.8462501,29.33 C49.2162501,29.33 50.2662501,30.2 50.2662501,31.61 L50.2662501,31.67 C50.2662501,33.23 49.0362501,33.95 46.9962501,33.95 L41.5062501,33.95 Z" id="AB" fill="#A5A6AA"></path>
      <rect id="Rectangle-3" fill="#828284" x="60" y="10" width="5" height="35" rx="2.5"></rect>
    </g>
  </g>
</svg>
