<svg width="40px" height="40px" viewBox="-1 -1 42 42" version="1.1" xmlns="http://www.w3.org/2000/svg" xmlns:xlink="http://www.w3.org/1999/xlink">
  <g id="Page-1" stroke="none" stroke-width="1" fill="none" fill-rule="evenodd">
    <g id="three" fill="#000000">
      <path d="M20,0 C8.955,0 0,8.954 0,20 C0,31.045 8.955,40 20,40 C31.045,40 40,31.045 40,20 C40,8.954 31.045,0 20,0 M20,3.333 C29.19,3.333 36.667,10.809 36.667,20 C36.667,29.19 29.19,36.666 20,36.666 C10.811,36.666 3.333,29.19 3.333,20 C3.333,10.809 10.811,3.333 20,3.333" id="Fill-1"></path>
      <path d="M17.968,18.133 L19.095,18.133 C19.4170016,18.133 19.7313318,18.1100002 20.038,18.064 C20.3446682,18.0179998 20.6244987,17.929834 20.8775,17.7995 C21.1305013,17.669166 21.3336659,17.4851679 21.487,17.2475 C21.6403341,17.0098321 21.717,16.6993352 21.717,16.316 C21.717,15.8253309 21.521502,15.4190016 21.1305,15.097 C20.739498,14.7749984 20.2603362,14.614 19.693,14.614 C19.1563306,14.614 18.7116684,14.7596652 18.359,15.051 C18.0063316,15.3423348 17.7763339,15.7026645 17.669,16.132 L13.874,15.35 C14.0580009,14.6446631 14.3339982,14.0428358 14.702,13.5445 C15.0700018,13.0461642 15.5069975,12.6436682 16.013,12.337 C16.5190025,12.0303318 17.0824969,11.8041674 17.7035,11.6585 C18.3245031,11.5128326 18.9799965,11.44 19.67,11.44 C20.3906703,11.44 21.0844967,11.5281658 21.7515,11.7045 C22.4185033,11.8808342 23.0049975,12.1568315 23.511,12.5325 C24.0170025,12.9081685 24.4194985,13.3796638 24.7185,13.947 C25.0175015,14.5143362 25.167,15.1889961 25.167,15.971 C25.167,16.8756712 24.9293357,17.6499968 24.454,18.294 C23.9786643,18.9380032 23.2886712,19.3519991 22.384,19.536 L22.384,19.605 C22.8746691,19.6663336 23.3078315,19.8119988 23.6835,20.042 C24.0591685,20.2720011 24.377332,20.555665 24.638,20.893 C24.898668,21.230335 25.0979993,21.6136645 25.236,22.043 C25.3740007,22.4723355 25.443,22.9246643 25.443,23.4 C25.443,24.2126707 25.2858349,24.9256636 24.9715,25.539 C24.6571651,26.1523364 24.2355026,26.6621646 23.7065,27.0685 C23.1774974,27.4748354 22.5565036,27.7776657 21.8435,27.977 C21.1304964,28.1763343 20.3753373,28.276 19.578,28.276 C18.121326,28.276 16.8678386,27.93867 15.8175,27.264 C14.7671614,26.58933 14.073335,25.5236739 13.736,24.067 L17.37,23.216 C17.4926673,23.7986696 17.7418315,24.258665 18.1175,24.596 C18.4931685,24.933335 19.0489963,25.102 19.785,25.102 C20.5363371,25.102 21.0921649,24.906502 21.4525,24.5155 C21.8128351,24.124498 21.993,23.6223364 21.993,23.009 C21.993,22.5489977 21.8971676,22.1925013 21.7055,21.9395 C21.5138324,21.6864987 21.2646682,21.4986673 20.958,21.376 C20.6513318,21.2533327 20.3063352,21.1805001 19.923,21.1575 C19.5396647,21.1344999 19.1563352,21.123 18.773,21.123 L17.968,21.123 L17.968,18.133 Z" id="3"></path>
    </g>
  </g>
</svg>
