<svg width="12px" height="17px" viewBox="0 0 12 17" version="1.1" xmlns="http://www.w3.org/2000/svg" xmlns:xlink="http://www.w3.org/1999/xlink">
    <g stroke="none" stroke-width="1" fill="none" fill-rule="evenodd">
        <g transform="translate(-781.000000, -316.000000)" fill="#000000" fill-rule="nonzero">
            <path d="M785.112381,323.269524 L786.185714,323.269524 C786.492382,323.269524 786.791745,323.247619 787.08381,323.20381 C787.375874,323.16 787.64238,323.076032 787.883333,322.951905 C788.124287,322.827777 788.317777,322.652541 788.46381,322.42619 C788.609842,322.19984 788.682857,321.904129 788.682857,321.539048 C788.682857,321.071744 788.496669,320.684763 788.124286,320.378095 C787.751903,320.071427 787.295558,319.918095 786.755238,319.918095 C786.244124,319.918095 785.820637,320.056824 785.484762,320.334286 C785.148887,320.611747 784.929842,320.954919 784.827619,321.36381 L781.213333,320.619048 C781.388572,319.947298 781.651427,319.374129 782.001905,318.899524 C782.352383,318.424918 782.768569,318.041589 783.250476,317.749524 C783.732383,317.457459 784.269045,317.242064 784.860476,317.103333 C785.451908,316.964602 786.076187,316.895238 786.733333,316.895238 C787.419686,316.895238 788.080473,316.979206 788.715714,317.147143 C789.350956,317.31508 789.909521,317.577935 790.391429,317.935714 C790.873336,318.293494 791.256665,318.742537 791.541429,319.282857 C791.826192,319.823177 791.968571,320.465711 791.968571,321.210476 C791.968571,322.072068 791.742224,322.809521 791.289524,323.422857 C790.836823,324.036194 790.179687,324.430475 789.318095,324.605714 L789.318095,324.671429 C789.785399,324.729842 790.197935,324.86857 790.555714,325.087619 C790.913494,325.306668 791.216507,325.576824 791.464762,325.898095 C791.713017,326.219367 791.902856,326.584442 792.034286,326.993333 C792.165715,327.402224 792.231429,327.833014 792.231429,328.285714 C792.231429,329.059686 792.081748,329.738727 791.782381,330.322857 C791.483014,330.906987 791.081431,331.392538 790.577619,331.779524 C790.073807,332.16651 789.482384,332.45492 788.803333,332.644762 C788.124282,332.834604 787.405083,332.929524 786.645714,332.929524 C785.258406,332.929524 784.064608,332.608257 783.064286,331.965714 C782.063963,331.323171 781.403176,330.308261 781.081905,328.920952 L784.542857,328.110476 C784.659683,328.6654 784.896982,329.10349 785.254762,329.424762 C785.612541,329.746033 786.141901,329.906667 786.842857,329.906667 C787.558416,329.906667 788.087776,329.720478 788.430952,329.348095 C788.774129,328.975712 788.945714,328.497463 788.945714,327.913333 C788.945714,327.475236 788.854445,327.135716 788.671905,326.894762 C788.489364,326.653808 788.252065,326.474921 787.96,326.358095 C787.667935,326.241269 787.339367,326.171905 786.974286,326.15 C786.609204,326.128095 786.244129,326.117143 785.879048,326.117143 L785.112381,326.117143 L785.112381,323.269524 Z"></path>
        </g>
    </g>
</svg>
