<svg width="40px" height="40px" viewBox="-1 -1 42 42" version="1.1" xmlns="http://www.w3.org/2000/svg" xmlns:xlink="http://www.w3.org/1999/xlink">
  <defs>
    <polygon id="path-1" points="39.9997 0 0 0 0 39.9998 39.9997 39.9998 39.9997 7.10542736e-15"></polygon>
  </defs>
  <g id="Page-1" stroke="none" stroke-width="1" fill="none" fill-rule="evenodd">
    <g id="thumps_up">
      <path d="M26.1637,25.5908 C25.4887,25.5388 25.5517,24.9138 26.1897,24.7968 C27.2467,24.6008 27.7117,24.0348 27.7117,23.5108 C27.7117,23.0698 27.3807,22.6588 26.7967,22.5258 C26.1007,22.3678 26.2437,21.8948 26.8227,21.8488 C27.7667,21.7738 28.2297,21.2128 28.2297,20.6738 C28.2297,20.2038 27.8757,19.7498 27.1797,19.6568 C26.4647,19.5608 26.6977,19.0448 27.2057,18.8888 C27.6397,18.7548 28.3337,18.4728 28.3337,17.6298 C28.3337,17.0698 27.9167,16.3278 26.4407,16.3888 C25.4167,16.4308 23.3857,16.2238 22.2917,15.6508 C23.0467,12.6038 22.8647,8.3328 20.8857,8.3328 C19.5577,8.3328 19.3047,9.8388 18.9067,11.2238 C17.4737,16.1978 14.6097,17.1088 11.6667,17.5598 L11.6667,25.8328 C17.2397,25.8328 18.7497,28.3328 22.9197,28.3328 C25.5857,28.3328 26.9627,26.8878 26.9627,26.1118 C26.9627,25.8328 26.7367,25.6348 26.1637,25.5908 M19.9997,-0.0002 C8.9547,-0.0002 -0.0003,8.9538 -0.0003,19.9998 C-0.0003,31.0458 8.9547,39.9998 19.9997,39.9998 C31.0447,39.9998 39.9997,31.0458 39.9997,19.9998 C39.9997,8.9538 31.0447,-0.0002 19.9997,-0.0002 M19.9997,3.3328 C29.1897,3.3328 36.6667,10.8098 36.6667,19.9998 C36.6667,29.1908 29.1897,36.6668 19.9997,36.6668 C10.8107,36.6668 3.3337,29.1908 3.3337,19.9998 C3.3337,10.8098 10.8107,3.3328 19.9997,3.3328" id="Fill-1" fill="#000000"></path>
    </g>
  </g>
</svg>
