<svg width="40px" height="40px" viewBox="-1 -1 42 42" version="1.1" xmlns="http://www.w3.org/2000/svg" xmlns:xlink="http://www.w3.org/1999/xlink">
  <defs>
    <polygon id="path-1" points="39.9998 40 0 40 0 0.0003 39.9998 0.0003 39.9998 40"></polygon>
  </defs>
  <g id="Page-1" stroke="none" stroke-width="1" fill="none" fill-rule="evenodd">
    <g id="thumbs_down">
      <path d="M26.9628,13.8883 C26.9628,13.1123 25.5858,11.6663 22.9198,11.6663 C18.7498,11.6663 17.2398,14.1663 11.6668,14.1663 L11.6668,22.4393 C14.6088,22.8903 17.4738,23.8023 18.9068,28.7763 C19.3048,30.1613 19.5568,31.6663 20.8858,31.6663 C22.8648,31.6663 23.0468,27.3953 22.2918,24.3493 C23.3858,23.7763 25.4168,23.5693 26.4408,23.6113 C27.9168,23.6713 28.3328,22.9293 28.3328,22.3693 C28.3328,21.5273 27.6398,21.2453 27.2058,21.1113 C26.6978,20.9553 26.4648,20.4383 27.1798,20.3433 C27.8758,20.2493 28.2288,19.7963 28.2288,19.3263 C28.2288,18.7873 27.7668,18.2253 26.8228,18.1513 C26.2438,18.1053 26.1008,17.6313 26.7968,17.4743 C27.3808,17.3413 27.7118,16.9303 27.7118,16.4893 C27.7118,15.9653 27.2458,15.3983 26.1898,15.2033 C25.5518,15.0863 25.4878,14.4613 26.1638,14.4093 C26.7368,14.3653 26.9628,14.1663 26.9628,13.8883 M19.9998,0.0003 C8.9548,0.0003 -0.0002,8.9543 -0.0002,20.0003 C-0.0002,31.0453 8.9548,40.0003 19.9998,40.0003 C31.0448,40.0003 39.9998,31.0453 39.9998,20.0003 C39.9998,8.9543 31.0448,0.0003 19.9998,0.0003 M19.9998,3.3333 C29.1898,3.3333 36.6668,10.8093 36.6668,20.0003 C36.6668,29.1903 29.1898,36.6663 19.9998,36.6663 C10.8108,36.6663 3.3328,29.1903 3.3328,20.0003 C3.3328,10.8093 10.8108,3.3333 19.9998,3.3333" id="Fill-1" fill="#000000"></path>
    </g>
  </g>
</svg>
