<svg width="16px" height="20px" viewBox="0 0 16 20" version="1.1" xmlns="http://www.w3.org/2000/svg" xmlns:xlink="http://www.w3.org/1999/xlink">
    <g stroke="none" stroke-width="1" fill="none" fill-rule="evenodd">
        <g transform="translate(-757.000000, -354.000000)" fill="#000000" fill-rule="nonzero">
            <path d="M771.678857,356.226952 C771.678857,355.487905 770.367429,354.110762 767.828381,354.110762 C763.856952,354.110762 762.418857,356.491714 757.111238,356.491714 L757.111238,364.370762 C759.913143,364.800286 762.641714,365.668857 764.006476,370.406 C764.385524,371.725048 764.625524,373.158381 765.891238,373.158381 C767.776,373.158381 767.949333,369.090762 767.230286,366.18981 C768.27219,365.644095 770.206476,365.446952 771.181714,365.486952 C772.587429,365.544095 772.983619,364.837429 772.983619,364.304095 C772.983619,363.50219 772.323619,363.233619 771.910286,363.106 C771.426476,362.957429 771.204571,362.465048 771.885524,362.374571 C772.548381,362.285048 772.884571,361.853619 772.884571,361.406 C772.884571,360.892667 772.444571,360.357429 771.545524,360.286952 C770.994095,360.243143 770.857905,359.791714 771.520762,359.64219 C772.076952,359.515524 772.39219,359.124095 772.39219,358.704095 C772.39219,358.205048 771.948381,357.665048 770.942667,357.479333 C770.335048,357.367905 770.274095,356.772667 770.917905,356.723143 C771.463619,356.681238 771.678857,356.491714 771.678857,356.226952"></path>
        </g>
    </g>
</svg>
