<svg width="16px" height="20px" viewBox="0 0 16 20" version="1.1" xmlns="http://www.w3.org/2000/svg" xmlns:xlink="http://www.w3.org/1999/xlink">
    <g stroke="none" stroke-width="1" fill="none" fill-rule="evenodd">
        <g transform="translate(-710.000000, -350.000000)" fill="#000000" fill-rule="nonzero">
            <path d="M723.91781,367.37219 C723.274952,367.322667 723.334952,366.727429 723.942571,366.616 C724.949238,366.429333 725.392095,365.890286 725.392095,365.391238 C725.392095,364.971238 725.076857,364.57981 724.520667,364.453143 C723.85781,364.302667 723.994,363.85219 724.545429,363.808381 C725.444476,363.736952 725.885429,363.202667 725.885429,362.689333 C725.885429,362.241714 725.548286,361.809333 724.885429,361.720762 C724.204476,361.629333 724.426381,361.137905 724.91019,360.989333 C725.323524,360.861714 725.984476,360.593143 725.984476,359.790286 C725.984476,359.256952 725.587333,358.550286 724.181619,358.608381 C723.206381,358.648381 721.272095,358.451238 720.23019,357.905524 C720.949238,355.003619 720.775905,350.936 718.891143,350.936 C717.626381,350.936 717.385429,352.370286 717.006381,353.689333 C715.641619,358.426476 712.914,359.294095 710.111143,359.723619 L710.111143,367.602667 C715.418762,367.602667 716.856857,369.983619 720.828286,369.983619 C723.367333,369.983619 724.678762,368.607429 724.678762,367.868381 C724.678762,367.602667 724.463524,367.414095 723.91781,367.37219"></path>
        </g>
    </g>
</svg>
