<svg width="12px" height="17px" viewBox="0 0 12 17" version="1.1" xmlns="http://www.w3.org/2000/svg" xmlns:xlink="http://www.w3.org/1999/xlink">
    <g stroke="none" stroke-width="1" fill="none" fill-rule="evenodd">
        <g transform="translate(-732.000000, -316.000000)" fill="#000000" fill-rule="nonzero">
            <path d="M732.454286,329.18381 L738.478095,323.773333 C738.784763,323.495872 739.091427,323.181906 739.398095,322.831429 C739.704763,322.480951 739.858095,322.072066 739.858095,321.604762 C739.858095,321.079045 739.668256,320.666509 739.288571,320.367143 C738.908887,320.067776 738.463495,319.918095 737.952381,319.918095 C737.339045,319.918095 736.860795,320.107935 736.517619,320.487619 C736.174443,320.867304 735.980953,321.3346 735.937143,321.889524 L732.651429,321.648571 C732.695238,320.845393 732.863173,320.148098 733.155238,319.556667 C733.447303,318.965235 733.834283,318.472383 734.31619,318.078095 C734.798098,317.683808 735.363965,317.388096 736.01381,317.190952 C736.663654,316.993809 737.36825,316.895238 738.127619,316.895238 C738.828575,316.895238 739.485711,316.993809 740.099048,317.190952 C740.712384,317.388096 741.245395,317.680157 741.698095,318.067143 C742.150796,318.454129 742.504919,318.93968 742.760476,319.52381 C743.016033,320.107939 743.14381,320.78698 743.14381,321.560952 C743.14381,322.057463 743.092699,322.506506 742.990476,322.908095 C742.888253,323.309685 742.745874,323.67476 742.563333,324.003333 C742.380793,324.331906 742.165398,324.634919 741.917143,324.912381 C741.668888,325.189843 741.398732,325.459999 741.106667,325.722857 L736.397143,329.775238 L743.275238,329.775238 L743.275238,332.666667 L732.454286,332.666667 L732.454286,329.18381 Z"></path>
        </g>
    </g>
</svg>
