<svg width="40px" height="40px" viewBox="-1 -1 42 42" version="1.1" xmlns="http://www.w3.org/2000/svg" xmlns:xlink="http://www.w3.org/1999/xlink">
  <g id="Page-1" stroke="none" stroke-width="1" fill="none" fill-rule="evenodd">
    <g id="two" fill="#000000">
      <path d="M20,0 C8.955,0 0,8.954 0,20 C0,31.045 8.955,40 20,40 C31.045,40 40,31.045 40,20 C40,8.954 31.045,0 20,0 M20,3.333 C29.19,3.333 36.667,10.809 36.667,20 C36.667,29.19 29.19,36.666 20,36.666 C10.811,36.666 3.333,29.19 3.333,20 C3.333,10.809 10.811,3.333 20,3.333" id="Fill-1"></path>
      <path d="M14.127,24.343 L20.452,18.662 C20.7740016,18.3706652 21.0959984,18.0410018 21.418,17.673 C21.7400016,17.3049982 21.901,16.8756691 21.901,16.385 C21.901,15.8329972 21.7016687,15.3998349 21.303,15.0855 C20.9043313,14.7711651 20.4366694,14.614 19.9,14.614 C19.2559968,14.614 18.7538351,14.8133313 18.3935,15.212 C18.0331649,15.6106687 17.8300002,16.1013304 17.784,16.684 L14.334,16.431 C14.3800002,15.5876624 14.5563318,14.8555031 14.863,14.2345 C15.1696682,13.6134969 15.5759975,13.0960021 16.082,12.682 C16.5880025,12.2679979 17.1821633,11.957501 17.8645,11.7505 C18.5468367,11.543499 19.2866627,11.44 20.084,11.44 C20.8200037,11.44 21.5099968,11.543499 22.154,11.7505 C22.7980032,11.957501 23.3576643,12.2641646 23.833,12.6705 C24.3083357,13.0768354 24.6801653,13.5866636 24.9485,14.2 C25.2168347,14.8133364 25.351,15.5263293 25.351,16.339 C25.351,16.8603359 25.2973339,17.3318312 25.19,17.7535 C25.0826661,18.1751688 24.9331676,18.5584983 24.7415,18.9035 C24.5498324,19.2485017 24.323668,19.5666652 24.063,19.858 C23.802332,20.1493348 23.5186682,20.4329986 23.212,20.709 L18.267,24.964 L25.489,24.964 L25.489,28 L14.127,28 L14.127,24.343 Z" id="2"></path>
    </g>
  </g>
</svg>
