<?xml version="1.0" encoding="UTF-8" standalone="no"?>
<svg width="61px" height="50px" viewBox="0 0 61 50" version="1.1" xmlns="http://www.w3.org/2000/svg" xmlns:xlink="http://www.w3.org/1999/xlink">
    <!-- Generator: Sketch 39 (31667) - http://www.bohemiancoding.com/sketch -->
    <title>Group</title>
    <desc>Created with Sketch.</desc>
    <defs></defs>
    <g id="icon-artboard" stroke="none" stroke-width="1" fill="none" fill-rule="evenodd">
        <g id="iOS-icon-kit" transform="translate(-39.000000, -776.000000)" fill="#fff">
            <g id="Icon-sets">
                <g id="Group" transform="translate(39.000000, 776.000000)">
                    <path d="M21,3 C20.384292,1.4607302 18.653652,0 17,0 L3,0 C1.34911,0 0,1.3429637 0,3 L0,10 L61,10 L61,7.5 C61,6 59.881915,5 58.5,5 L22,5 L21,3 Z" id="health-data-path"></path>
                    <path d="M0,14 C0,12.3456272 1.34516407,11 3.00419307,11 L57.9958076,11 C59.6549776,11 61,12.8424683 61,14.495507 L61,47 C61,48.654373 59.6548366,50 57.9958076,50 L3.00419307,50 C1.34502307,50 0,48.653039 0,47 L0,14 Z" id="health-data-path"></path>
                </g>
            </g>
        </g>
    </g>
</svg>