<svg width="16" height="20" viewBox="0 0 16 20" xmlns="http://www.w3.org/2000/svg">
  <path d="M2.82637348 20H13.1736067C15.0514131 20 16 19.0614756 16 17.2313472V8.42796006c0-1.01360176-.1355124-1.46410424-.7743595-2.10230008L9.53417855.75081185C8.91469889.14077482 8.41136423 0 7.47247094 0H2.82637348C.96793449 0 0 .92914456 0 2.75925565V17.2313472C0 19.0614756.9582607 20 2.82637348 20zm.05808241-1.1637757c-1.11314052 0-1.68421157-.5724983-1.68421157-1.633034V2.78741445c0-1.0323807.57107105-1.63303787 1.69388537-1.63303787h4.52025884v5.64994469c0 1.06991938.56139725 1.57672026 1.63582277 1.57672026h5.7592182v8.82214877c0 1.0605357-.5807647 1.633034-1.6938854 1.633034H2.88445589zM9.1760301 7.28296334c-.44525224 0-.62915345-.16893362-.62915345-.60065716V1.38900769l6.02056915 5.89395565H9.1760301zm-.60011225 9.60112826V12.90473l-.04838879-1.7081152 1.25830691 1.2482521.84211573.8258892c.0967776.1126352.2516574.1689336.3968436.1689336.300066 0 .5323759-.2158522.5323759-.5068009 0-.1970924-.0871237-.3190883-.2226361-.4317235L8.42103802 9.81698697c-.1451862-.14077482-.271005-.18771257-.41621103-.18771257-.14518621 0-.27102483.04693775-.42588484.18771257l-2.9134971 2.68417833c-.12581879.1126352-.22261621.2346311-.22261621.4317235 0 .2909487.22261621.5068009.53235604.5068009.14518621 0 .30006604-.0562984.40653725-.1689336l.8421157-.8258892 1.25830691-1.2482521-.0483888 1.7081152v3.9793616c0 .3003294.26133121.5443461.57107105.5443461.30973983 0 .57109086-.2440167.57109086-.5443461z" fill="#FFF" fill-rule="nonzero"/>
</svg>
