<svg width="75" height="18" xmlns="http://www.w3.org/2000/svg"><g fill-rule="nonzero" fill="none" style="transform: translate(-1px, -1px);"><path fill="#2970A2" d="M32.91.85L20.17 2.81l8.74 2.38L44.57.85z"/><path fill="#005288" d="M12.99.85l7.18 1.96L32.91.85zM44.57.85L28.91 5.19l21.44 5.84L75 1l-.37-.15z"/><path fill="#003870" d="M50.35 11.03L75 18V1z"/><path fill="#08588E" d="M.14 5.88v3.79l5.49 1.97 23.28-6.45-8.74-2.38z"/><path fill="#00437A" d="M.14.85v5.03l20.03-3.07L12.99.85zM5.63 11.64L23.35 18h10.22l16.78-6.97-21.44-5.84z"/><path fill="#002D67" d="M33.57 18H75l-24.65-6.97z"/><path fill="#003F77" d="M.14 13.16l5.49-1.52L.14 9.67z"/><path fill="#003069" d="M.14 13.16V18h23.21L5.63 11.64z"/></g></svg>