<svg width="75" height="18" xmlns="http://www.w3.org/2000/svg"><g fill-rule="nonzero" fill="none"><path fill="#E28F77" d="M32.77 0L20.03 1.96l8.74 2.38L44.43 0z"/><path fill="#D27F67" d="M12.85 0l7.18 1.96L32.77 0zM44.43 0L28.77 4.34l21.44 5.84L74.86.15 74.49 0z"/><path fill="#CB7860" d="M50.21 10.18l24.65 6.97v-17z"/><path fill="#D27F67" d="M0 5.03v3.79l5.49 1.97 23.28-6.45-8.74-2.38z"/><path fill="#CB7860" d="M0 0v5.03l20.03-3.07L12.85 0zM5.49 10.79l17.72 6.36h10.22l16.78-6.97-21.44-5.84z"/><path fill="#C47159" d="M33.43 17.15h41.43l-24.65-6.97z"/><path fill="#C26F57" d="M0 12.31l5.49-1.52L0 8.82z"/><path fill="#C26F57" d="M0 12.31v4.84h23.21L5.49 10.79z"/></g></svg>