<svg width="75" height="18" xmlns="http://www.w3.org/2000/svg"><g fill-rule="nonzero" fill="none"><path fill="#3E3E3E" d="M32.77 0L20.03 1.96l8.74 2.38L44.43 0z"/><path fill="#2E2E2E" d="M12.85 0l7.18 1.96L32.77 0z"/><path fill="#2A2A2A" d="M44.43 0L28.77 4.34l21.44 5.84L74.86.15 74.49 0z"/><path fill="#1D1D1D" d="M50.21 10.18l24.65 6.97v-17z"/><path fill="#2E2E2E" d="M0 5.03v3.79l5.49 1.97 23.28-6.45-8.74-2.38z"/><path fill="#232323" d="M0 0v5.03l20.03-3.07L12.85 0zM5.49 10.79l17.72 6.36h10.22l16.78-6.97-21.44-5.84z"/><path fill="#181818" d="M33.43 17.15h41.43l-24.65-6.97z"/><path fill="#1D1D1D" d="M0 12.31l5.49-1.52L0 8.82z"/><path fill="#191919" d="M0 12.31v4.84h23.21L5.49 10.79z"/></g></svg>