<svg width="58" height="156" xmlns="http://www.w3.org/2000/svg"><g fill-rule="nonzero" fill="none" transform="translate(-0.7,0)"><path fill="#3E3E3E" d="M24.765 164l11.633-12.576-5.319-10.2-11.592 22.777z"/><path fill="#2E2E2E" d="M42.96 164l-6.562-12.576-11.633 12.577zM1.72 164l8.08-23.683 8.238-24.106 13.041 25.013-11.592 22.777z"/><path fill="#232323" d="M.68 164V82.914l17.358 33.298-16.312 47.79z"/><path fill="#2E2E2E" d="M36.398 151.424l16.687-18.033-7.843-19.798-14.163 27.631z"/><path d="M42.96 164l-6.562-12.576 16.687-18.033 9.595 24.252V164H42.96zm-11.881-22.776l-13.041-25.013 11.682-34.21h3.012l12.51 31.592-14.163 27.631z" fill="#232323"/><path fill="#181818" d="M18.038 116.211L.68 82.913v-.912h29.04z"/><path fill="#232323" d="M53.085 133.391l-7.843-19.798 16.196-31.592h1.242v41.01z"/><path d="M62.68 157.643l-9.595-24.252 9.595-10.38v34.632zM32.732 82h28.706l-16.196 31.592-12.51-31.592z" fill="#181818"/><g><path fill="#3E3E3E" d="M24.765 0l11.633 12.577-5.319 10.2L19.487 0z"/><path fill="#2E2E2E" d="M42.96 0l-6.562 12.577L24.765 0zM1.72 0L9.8 23.685l8.238 24.106 13.041-25.013L19.487 0z"/><path fill="#232323" d="M.68 0v81.088L18.038 47.79 1.726 0z"/><path fill="#2E2E2E" d="M36.398 12.577L53.085 30.61l-7.843 19.798-14.163-27.631z"/><path d="M42.96 0l-6.562 12.577L53.085 30.61 62.68 6.359V0H42.96zM31.079 22.778L18.038 47.79 29.72 82h3.012l12.51-31.592-14.163-27.631z" fill="#232323"/><path fill="#181818" d="M18.038 47.79L.68 81.088V82h29.04z"/><path fill="#232323" d="M53.085 30.61l-7.843 19.798L61.438 82h1.242V40.99z"/><path d="M62.68 6.359l-9.595 24.25L62.68 40.99V6.36zM32.732 82h28.706L45.242 50.408 32.732 82z" fill="#181818"/></g></g></svg>